<?xml version="1.0" encoding="UTF-8"?>
<svg id="Layer_1" data-name="Layer 1" xmlns="http://www.w3.org/2000/svg" viewBox="0 0 300 499">
  <path d="M258.78,61.75c-.07,63.93,35.76,63.97,35.69,127.91l-144.75-.16c.07-63.93-35.76-63.97-35.69-127.91l144.75.16Z" fill="rgba(204, 204, 204, .4)"/>
  <path d="M114.03,61.59c-.07,64.99,21.35,65.01,21.28,130l-108.17-.12c.07-64.99-21.35-65.01-21.28-130l108.17.12Z" fill="rgba(246, 124, 246, .8)" opacity=".6"/>
  <path d="M135.29,205.64c-.07,61.12,43.14,61.17,43.07,122.29l-36.59-.04c.07-61.12-43.14-61.17-43.07-122.29l36.59.04Z" fill="rgba(204, 204, 204, .4)"/>
  <path d="M98.71,205.6c-.07,61.12,24.76,61.15,24.7,122.27l-71.58-.08c.07-61.12-24.76-61.15-24.7-122.27l71.58.08Z" fill="rgba(246, 124, 246, .8)" opacity=".6"/>
  <path d="M123.39,341.92c-.07,60.77,31.66,60.81,31.59,121.58l-35-.04c.07-60.77-31.66-60.81-31.59-121.58l35,.04Z" fill="rgba(204, 204, 204, .4)"/>
  <path d="M88.39,341.88c-.07,60.77,21.62,60.8,21.55,121.57l-36.59-.04c.07-60.77-21.62-60.8-21.55-121.57l36.59.04Z" fill="rgba(246, 124, 246, .8)" opacity=".6"/>
  <rect x="125.31" y="-71.88" width="14.05" height="252.92" transform="translate(77.6 186.86) rotate(-89.94)" fill="rgba(246, 124, 246, .8)"/>
  <rect x="214.37" y="124.91" width="15.42" height="144.75" transform="translate(24.55 419.15) rotate(-89.94)" fill="rgba(204, 204, 204, .4)"/>
  <rect x="74.19" y="144.47" width="14.05" height="108.17" transform="translate(-117.43 279.55) rotate(-89.94)" fill="rgba(246, 124, 246, .8)"/>
  <rect x="153.04" y="316.65" width="14.05" height="36.59" transform="translate(-175.05 494.63) rotate(-89.94)" fill="rgba(204, 204, 204, .4)"/>
  <rect x="80.58" y="299.07" width="14.05" height="71.58" transform="translate(-247.35 422.09) rotate(-89.94)" fill="rgba(246, 124, 246, .8)"/>
  <g isolation="isolate">
    <path d="M86.69,467.93v-.98s1.17,0,1.17,0v.98s-1.17,0-1.17,0Z"/>
  </g>
  <rect x="130.45" y="453.01" width="14.05" height="35" transform="translate(-333.19 607.45) rotate(-89.94)" fill="rgba(204, 204, 204, .4)"/>
  <rect x="84.61" y="452.16" width="14.05" height="36.59" transform="translate(-378.92 561.57) rotate(-89.94)" fill="rgba(246, 124, 246, .8)"/>
  <g>
    <path d="M14.29,13.33v.6c0,.09-.05.14-.14.14h-2.74s-.06.02-.06.06v8.72c0,.09-.05.14-.14.14h-.71c-.09,0-.14-.05-.14-.14v-8.72s-.02-.06-.06-.06h-2.63c-.09,0-.14-.05-.14-.14v-.6c0-.09.05-.14.14-.14h6.48c.09,0,.14.05.14.14Z"/>
    <path d="M16,22.58c-.49-.35-.82-.82-1.01-1.43-.13-.43-.2-1-.2-1.72s.07-1.29.2-1.71c.18-.6.51-1.07.99-1.41.49-.34,1.07-.52,1.76-.52s1.23.17,1.71.52c.48.35.81.81.99,1.4.13.4.2.98.2,1.72s-.07,1.33-.2,1.72c-.18.61-.51,1.08-.99,1.43s-1.06.52-1.73.52-1.25-.17-1.74-.52ZM18.88,21.86c.32-.25.53-.58.64-1,.08-.34.13-.81.13-1.41s-.04-1.09-.11-1.41c-.11-.42-.33-.75-.65-1-.32-.25-.71-.37-1.17-.37s-.84.12-1.16.37c-.32.25-.53.58-.64,1-.08.33-.11.8-.11,1.41s.04,1.09.11,1.41c.1.42.32.75.64,1,.32.25.72.37,1.18.37s.83-.12,1.15-.37Z"/>
    <path d="M25.61,16.73h-1.58s-.06.02-.06.06v4.13c0,.45.1.76.3.94.2.18.52.27.94.27h.35c.09,0,.14.05.14.14v.57c0,.09-.05.14-.14.14-.11,0-.29.01-.52.01-.67,0-1.18-.13-1.53-.38-.35-.25-.52-.72-.52-1.4v-4.44s-.02-.06-.06-.06h-.85c-.09,0-.14-.05-.14-.14v-.55c0-.09.05-.14.14-.14h.85s.06-.02.06-.06v-1.62c0-.09.05-.14.14-.14h.69c.09,0,.14.05.14.14v1.62s.02.06.06.06h1.58c.09,0,.14.05.14.14v.55c0,.09-.05.14-.14.14Z"/>
    <path d="M32.07,16.44c.46.43.69,1,.69,1.71v4.7c0,.09-.05.14-.14.14h-.71c-.09,0-.14-.05-.14-.14v-.57s0-.03-.02-.04c-.01,0-.03,0-.05.01-.23.28-.54.49-.91.64-.37.14-.79.22-1.25.22-.66,0-1.22-.17-1.67-.5-.45-.34-.67-.85-.67-1.54s.25-1.25.76-1.66c.51-.41,1.22-.61,2.12-.61h1.62s.06-.02.06-.06v-.53c0-.48-.13-.85-.4-1.13-.27-.28-.68-.41-1.24-.41-.45,0-.81.09-1.09.26-.28.17-.45.41-.52.72-.03.09-.08.14-.17.13l-.76-.1c-.1-.02-.14-.06-.13-.11.07-.52.35-.95.84-1.27s1.09-.49,1.82-.49c.84,0,1.49.21,1.95.64ZM31.16,21.83c.4-.28.6-.65.6-1.11v-1.09s-.02-.06-.06-.06h-1.47c-.62,0-1.11.13-1.48.38-.37.25-.56.6-.56,1.05,0,.41.14.72.43.93.28.21.66.31,1.11.31.55,0,1.03-.14,1.43-.41Z"/>
    <path d="M34.82,22.85v-9.52c0-.09.05-.14.14-.14h.71c.09,0,.14.05.14.14v9.52c0,.09-.05.14-.14.14h-.71c-.09,0-.14-.05-.14-.14Z"/>
    <path d="M46.46,19.45c0,.77-.07,1.36-.2,1.78-.18.58-.49,1.04-.92,1.37-.44.34-.99.5-1.64.5-.37,0-.71-.07-1.02-.22-.31-.15-.56-.36-.77-.64,0-.02-.02-.03-.04-.02s-.03.02-.03.03v.6c0,.09-.05.14-.14.14h-.71c-.09,0-.14-.05-.14-.14v-9.52c0-.09.05-.14.14-.14h.71c.09,0,.14.05.14.14v3.3s0,.03.02.04c.01,0,.03,0,.05-.02.21-.27.46-.48.77-.63.31-.15.65-.22,1.02-.22.66,0,1.22.17,1.67.51.45.34.76.81.92,1.41.11.42.17,1,.17,1.74ZM45.41,20.47c.04-.25.06-.59.06-1.03s-.03-.81-.08-1.07c-.05-.26-.13-.49-.25-.69-.12-.31-.32-.56-.59-.74s-.59-.28-.97-.28-.66.1-.92.29c-.26.19-.44.45-.55.76-.09.2-.16.42-.2.67s-.06.61-.06,1.06.02.8.06,1.04c.04.25.1.47.19.67.12.33.31.59.56.78.25.2.56.29.94.29.39,0,.73-.1,1.01-.29.29-.2.48-.46.6-.8.09-.2.16-.42.2-.67Z"/>
    <path d="M52.91,15.9h.71c.09,0,.14.05.14.14v6.8c0,.09-.05.14-.14.14h-.71c-.09,0-.14-.05-.14-.14v-.6s0-.03-.03-.04c-.02,0-.03,0-.04.01-.39.58-1.01.87-1.86.87-.45,0-.86-.09-1.24-.27-.38-.18-.68-.45-.9-.79s-.33-.76-.33-1.25v-4.73c0-.09.05-.14.14-.14h.71c.09,0,.14.05.14.14v4.44c0,.53.15.95.45,1.27.3.31.7.47,1.22.47s.95-.16,1.27-.48c.31-.32.47-.74.47-1.26v-4.44c0-.09.05-.14.14-.14Z"/>
    <path d="M60.53,13.19h.71c.09,0,.14.05.14.14v9.52c0,.09-.05.14-.14.14h-.71c-.09,0-.14-.05-.14-.14v-.59s0-.03-.02-.04c-.01,0-.03,0-.05.02-.21.27-.46.48-.76.63-.3.15-.64.22-1.01.22-.65,0-1.2-.17-1.64-.5-.44-.34-.75-.79-.92-1.37-.13-.42-.2-1.01-.2-1.78s.06-1.35.17-1.74c.17-.6.48-1.07.92-1.41.45-.34,1-.51,1.67-.51.36,0,.7.07,1.01.22.31.15.56.35.77.62.02.02.04.03.05.02.01,0,.02-.02.02-.04v-3.29c0-.09.05-.14.14-.14ZM60.32,20.5c.04-.25.06-.6.06-1.05s-.02-.8-.06-1.06c-.04-.26-.1-.48-.2-.68-.11-.32-.3-.57-.55-.76-.26-.19-.56-.29-.92-.29-.37,0-.7.09-.97.28-.27.19-.47.43-.59.74-.11.21-.19.44-.24.69-.05.26-.08.61-.08,1.07s.02.78.06,1.03c.04.25.1.47.2.67.11.34.31.6.59.8.28.2.62.29,1.01.29s.69-.1.94-.29c.25-.2.44-.46.56-.78.08-.19.14-.41.18-.66Z"/>
    <path d="M68.14,15.9h.71c.09,0,.14.05.14.14v6.71c0,1.04-.3,1.81-.9,2.3-.6.48-1.43.73-2.49.73-.21,0-.38,0-.49-.01-.09,0-.14-.06-.14-.15l.03-.64s.01-.08.04-.1c.03-.02.06-.03.1-.02h.38c.87.01,1.5-.16,1.89-.5.39-.34.59-.88.59-1.62v-.52s0-.03-.02-.03c-.01,0-.03,0-.05.02-.43.56-1.04.84-1.83.84-.61,0-1.15-.16-1.62-.49-.47-.33-.79-.79-.94-1.39-.11-.38-.17-.95-.17-1.71,0-.41.01-.76.04-1.04.02-.28.07-.53.15-.76.17-.56.47-1.01.91-1.35.44-.34.97-.51,1.58-.51.83,0,1.46.28,1.89.83.02.02.04.02.05.01.01,0,.02-.02.02-.04v-.55c0-.09.05-.14.14-.14ZM67.99,20.33c0-.21.01-.5.01-.9,0-.48,0-.8-.01-.96,0-.16-.03-.31-.07-.46-.08-.39-.26-.72-.55-.97s-.67-.39-1.11-.39-.81.13-1.11.38c-.3.25-.52.58-.64.98-.09.3-.14.77-.14,1.4,0,.68.05,1.15.14,1.41.09.39.3.72.61.97.31.26.69.39,1.14.39s.83-.13,1.13-.38c.29-.25.48-.57.55-.97.03-.14.05-.31.06-.52Z"/>
    <path d="M76.61,19.24v.45c0,.09-.05.14-.14.14h-4.52s-.06.02-.06.06c.02.51.05.84.08.99.1.42.32.75.66.99.34.24.77.36,1.29.36.39,0,.74-.09,1.04-.27s.53-.43.7-.76c.06-.08.12-.1.2-.06l.55.32c.07.05.09.11.06.2-.23.45-.58.8-1.05,1.06-.47.26-1,.38-1.61.38-.66,0-1.22-.17-1.67-.48s-.77-.74-.97-1.29c-.17-.45-.25-1.09-.25-1.93,0-.39,0-.71.02-.96.01-.25.05-.47.11-.67.16-.61.48-1.09.96-1.46.48-.36,1.06-.55,1.74-.55.85,0,1.5.21,1.96.64.46.43.74,1.04.85,1.82.04.26.06.59.06.98ZM72.6,17.02c-.3.24-.5.56-.59.96-.06.2-.09.51-.11.95,0,.04.02.06.06.06h3.63s.06-.02.06-.06c-.02-.42-.05-.72-.08-.9-.1-.42-.31-.75-.62-1-.31-.25-.71-.37-1.18-.37s-.84.12-1.14.36Z"/>
    <path d="M81.53,16.73h-1.58s-.06.02-.06.06v4.13c0,.45.1.76.3.94.2.18.52.27.94.27h.35c.09,0,.14.05.14.14v.57c0,.09-.05.14-.14.14-.11,0-.29.01-.52.01-.67,0-1.18-.13-1.53-.38-.35-.25-.52-.72-.52-1.4v-4.44s-.02-.06-.06-.06h-.85c-.09,0-.14-.05-.14-.14v-.55c0-.09.05-.14.14-.14h.85s.06-.02.06-.06v-1.62c0-.09.05-.14.14-.14h.69c.09,0,.14.05.14.14v1.62s.02.06.06.06h1.58c.09,0,.14.05.14.14v.55c0,.09-.05.14-.14.14Z"/>
    <path d="M84.26,17.86c-.14-.15-.22-.34-.22-.56s.07-.42.22-.57c.14-.14.33-.22.57-.22s.41.07.56.22c.15.15.22.33.22.57s-.08.41-.22.56c-.15.15-.34.22-.56.22s-.42-.07-.57-.22ZM84.26,22.58c-.14-.15-.22-.34-.22-.56s.07-.42.22-.57c.14-.14.33-.22.57-.22s.41.07.56.22c.15.15.22.33.22.57s-.08.41-.22.56c-.15.15-.34.22-.56.22s-.42-.07-.57-.22Z"/>
    <path d="M96.38,22.27c-.46.46-1.11.73-1.94.81-.04,0-.06.02-.06.06v1.01c.01.09-.03.14-.13.14h-.62c-.09,0-.14-.05-.14-.14v-1.01s0-.06-.04-.06c-.85-.09-1.51-.37-1.99-.83s-.71-1.05-.71-1.77v-.43c0-.09.05-.14.14-.14h.63c.09,0,.14.05.14.14v.38c0,.54.21.98.64,1.31.42.33,1.01.5,1.76.5.67,0,1.19-.15,1.54-.46s.53-.71.53-1.21c0-.33-.08-.61-.25-.84-.16-.23-.41-.45-.75-.66-.34-.21-.82-.44-1.44-.71-.67-.28-1.19-.53-1.55-.74s-.65-.48-.88-.81c-.23-.33-.34-.75-.34-1.25,0-.72.22-1.29.66-1.71.44-.42,1.04-.67,1.82-.75.04,0,.06-.02.06-.06v-1.09c-.01-.09.03-.14.13-.14h.6c.09,0,.14.05.14.14v1.11s0,.06.04.06c.82.09,1.47.37,1.93.84s.7,1.06.7,1.79v.31c0,.09-.05.14-.14.14h-.66c-.09,0-.14-.05-.14-.14v-.25c0-.54-.2-.98-.6-1.33s-.96-.52-1.67-.52c-.63,0-1.11.14-1.44.41-.34.27-.5.66-.5,1.18,0,.34.08.61.25.83s.4.41.7.57c.3.16.77.38,1.41.64.64.28,1.17.54,1.56.78s.71.54.95.89c.24.35.36.78.36,1.28,0,.71-.23,1.29-.69,1.75Z"/>
    <path d="M100.54,13.19h.76c.09,0,.14.05.14.14v9.52c0,.09-.05.14-.14.14h-.71c-.09,0-.14-.05-.14-.14v-8.53s0-.03-.02-.04-.03,0-.05,0l-1.48.6h-.06c-.06.01-.09-.02-.11-.1l-.07-.53v-.03s.03-.09.1-.14l1.61-.85c.06-.03.12-.04.18-.04Z"/>
    <path d="M109.23,19.96c0,.46-.04.85-.13,1.18-.16.6-.48,1.07-.95,1.42-.48.35-1.05.52-1.72.52s-1.23-.17-1.69-.5c-.47-.34-.78-.78-.95-1.34-.07-.21-.11-.41-.13-.62v-.03c0-.07.04-.11.13-.11h.74c.09,0,.14.05.15.14,0,.06.02.15.06.28.09.4.29.72.58.96.29.24.66.36,1.1.36s.82-.13,1.13-.38c.3-.25.5-.6.6-1.04.06-.21.08-.49.08-.84,0-.32-.02-.62-.07-.91-.07-.43-.25-.76-.56-.98-.31-.22-.69-.34-1.15-.34-.41,0-.78.09-1.11.28-.33.19-.54.43-.63.74-.03.08-.08.13-.15.13h-.76c-.09,0-.14-.05-.14-.14v-5.42c0-.09.05-.14.14-.14h4.9c.09,0,.14.05.14.14v.59c0,.09-.05.14-.14.14h-3.99s-.06.02-.06.06v3.39s0,.03,0,.04c.01,0,.03,0,.05-.01.23-.21.51-.38.83-.5s.65-.17,1.01-.17c.66,0,1.22.16,1.68.48.46.32.75.78.88,1.36.08.41.13.83.13,1.26Z"/>
    <path d="M111.3,22.74c-.15-.15-.22-.34-.22-.56s.07-.42.22-.57c.14-.14.33-.22.57-.22s.41.07.56.22.22.33.22.57-.07.41-.22.56-.34.22-.56.22-.42-.07-.57-.22Z"/>
    <path d="M120.21,16.23v4.37c0,.77-.25,1.37-.76,1.83s-1.16.68-1.97.68-1.42-.22-1.91-.67c-.49-.44-.74-1.02-.74-1.73v-.2c0-.09.05-.14.14-.14h.71c.09,0,.14.05.14.14v.11c0,.48.15.86.46,1.16.31.3.71.45,1.19.45s.92-.16,1.25-.47c.33-.31.49-.73.49-1.24v-2.04s0-.03-.03-.04c-.02,0-.03,0-.04.02-.41.55-1.03.83-1.85.83-.59,0-1.08-.13-1.48-.39s-.7-.63-.9-1.11c-.2-.39-.29-.92-.29-1.6,0-.57.07-1.04.21-1.4.2-.54.51-.96.95-1.26.43-.3.97-.45,1.6-.45.67,0,1.24.16,1.7.48.46.32.78.77.96,1.34.11.37.17.81.17,1.32ZM118.47,18.12c.29-.2.48-.48.6-.83.1-.27.15-.65.15-1.13,0-.4-.04-.74-.13-1.02-.11-.35-.31-.64-.6-.85-.29-.21-.64-.32-1.06-.32s-.75.1-1.04.3c-.29.2-.49.49-.62.88-.1.26-.15.62-.15,1.06,0,.48.06.85.18,1.12.11.34.31.6.59.8.28.2.63.3,1.04.3s.76-.1,1.04-.3Z"/>
    <path d="M127.35,17.96c.5.21.89.51,1.15.91.26.4.39.89.39,1.46,0,.84-.27,1.49-.8,1.96-.54.47-1.24.7-2.12.7h-3.39c-.09,0-.14-.05-.14-.14v-9.52c0-.09.05-.14.14-.14h3.29c.91,0,1.62.22,2.13.67.52.45.78,1.08.78,1.89,0,.51-.12.95-.37,1.31-.25.36-.6.63-1.06.82-.05.03-.05.06,0,.08ZM123.43,14.11v3.36s.02.06.06.06h2.38c.59,0,1.06-.15,1.41-.46.35-.31.52-.72.52-1.23,0-.54-.17-.97-.52-1.3-.35-.32-.82-.48-1.41-.48h-2.38s-.06.02-.06.06ZM127.37,21.6c.35-.34.53-.79.53-1.36s-.18-1.02-.54-1.36c-.36-.34-.84-.51-1.45-.51h-2.42s-.06.02-.06.06v3.63s.02.06.06.06h2.48c.59,0,1.06-.17,1.41-.5Z"/>
  </g>
  <g>
    <path d="M136,19c1.94-.1,10.53-.34,18,6,7.9,6.71,8.88,15.98,8.99,19.1" fill="none" stroke="#000" stroke-miterlimit="10" stroke-width=".75"/>
    <path d="M159.09,39.17c.17-.12.4-.08.52.09l3.33,4.67,2.83-4.99c.1-.18.33-.24.51-.14.18.1.24.33.14.51l-3.12,5.51c-.06.11-.18.18-.31.19s-.25-.05-.33-.16l-3.67-5.15c-.04-.06-.07-.13-.07-.2,0-.12.05-.25.16-.33Z"/>
  </g>
  <g>
    <path d="M39.29,110.33c-.5-.26-.88-.62-1.16-1.08s-.41-1-.41-1.61v-3.86c0-.61.14-1.14.41-1.61s.66-.83,1.16-1.08c.49-.26,1.07-.39,1.72-.39s1.22.13,1.71.38.88.6,1.16,1.06.41.96.41,1.53v.18c0,.09-.05.14-.14.14h-.71c-.09,0-.14-.05-.14-.14v-.17c0-.62-.21-1.13-.62-1.53s-.97-.59-1.66-.59-1.25.2-1.67.6-.63.93-.63,1.58v3.92c0,.65.21,1.18.64,1.58.43.4.99.6,1.69.6s1.23-.19,1.63-.56c.41-.37.61-.87.61-1.5v-1.27s-.02-.06-.06-.06h-2.06c-.09,0-.14-.05-.14-.14v-.59c0-.09.05-.14.14-.14h2.97c.09,0,.14.05.14.14v1.81c0,1-.3,1.78-.89,2.34s-1.39.84-2.39.84c-.65,0-1.23-.13-1.72-.38Z"/>
    <path d="M51.89,106.85v.45c0,.09-.05.14-.14.14h-4.52s-.06.02-.06.06c.02.51.05.84.08.99.1.42.32.75.66.99.34.24.77.36,1.29.36.39,0,.74-.09,1.04-.27s.53-.43.7-.76c.06-.08.12-.1.2-.06l.55.32c.07.05.09.11.06.2-.23.45-.58.8-1.05,1.06-.47.26-1,.38-1.61.38-.66,0-1.22-.17-1.67-.48s-.77-.74-.97-1.29c-.17-.45-.25-1.09-.25-1.93,0-.39,0-.71.02-.96.01-.25.05-.47.11-.67.16-.61.48-1.09.96-1.46.48-.36,1.06-.55,1.74-.55.85,0,1.5.21,1.96.64.46.43.74,1.04.85,1.82.04.26.06.59.06.98ZM47.88,104.64c-.3.24-.5.56-.59.96-.06.2-.09.51-.11.95,0,.04.02.06.06.06h3.63s.06-.02.06-.06c-.02-.42-.05-.72-.08-.9-.1-.42-.31-.75-.62-1-.31-.25-.71-.37-1.18-.37s-.84.12-1.14.36Z"/>
    <path d="M58.59,104.08c.44.44.67,1.03.67,1.76v4.62c0,.09-.05.14-.14.14h-.71c-.09,0-.14-.05-.14-.14v-4.42c0-.51-.16-.93-.47-1.26-.31-.33-.72-.49-1.21-.49s-.93.16-1.25.48-.48.73-.48,1.25v4.45c0,.09-.05.14-.14.14h-.71c-.09,0-.14-.05-.14-.14v-6.8c0-.09.05-.14.14-.14h.71c.09,0,.14.05.14.14v.6s0,.03.02.04c.01,0,.03,0,.04-.01.41-.58,1.04-.87,1.89-.87.75,0,1.34.22,1.79.66Z"/>
    <path d="M66.8,106.85v.45c0,.09-.05.14-.14.14h-4.52s-.06.02-.06.06c.02.51.05.84.08.99.1.42.32.75.66.99.34.24.77.36,1.29.36.39,0,.74-.09,1.04-.27s.53-.43.7-.76c.06-.08.12-.1.2-.06l.55.32c.07.05.09.11.06.2-.23.45-.58.8-1.05,1.06-.47.26-1,.38-1.61.38-.66,0-1.22-.17-1.67-.48s-.77-.74-.97-1.29c-.17-.45-.25-1.09-.25-1.93,0-.39,0-.71.02-.96.01-.25.05-.47.11-.67.16-.61.48-1.09.96-1.46.48-.36,1.06-.55,1.74-.55.85,0,1.5.21,1.96.64.46.43.74,1.04.85,1.82.04.26.06.59.06.98ZM62.79,104.64c-.3.24-.5.56-.59.96-.06.2-.09.51-.11.95,0,.04.02.06.06.06h3.63s.06-.02.06-.06c-.02-.42-.05-.72-.08-.9-.1-.42-.31-.75-.62-1-.31-.25-.71-.37-1.18-.37s-.84.12-1.14.36Z"/>
    <path d="M72.43,103.63c.07.04.1.1.08.18l-.15.69c-.03.09-.09.12-.18.08-.16-.06-.34-.1-.55-.1h-.18c-.49.03-.89.21-1.2.55s-.48.77-.48,1.29v4.13c0,.09-.05.14-.14.14h-.71c-.09,0-.14-.05-.14-.14v-6.8c0-.09.05-.14.14-.14h.71c.09,0,.14.05.14.14v.85s0,.04.02.05c.01,0,.03,0,.04-.02.2-.35.45-.61.75-.81.3-.19.66-.29,1.06-.29.31,0,.57.06.8.18Z"/>
    <path d="M78.24,104.06c.46.43.69,1,.69,1.71v4.7c0,.09-.05.14-.14.14h-.71c-.09,0-.14-.05-.14-.14v-.57s0-.03-.02-.04c-.01,0-.03,0-.05.01-.23.28-.54.49-.91.64-.37.14-.79.22-1.25.22-.66,0-1.22-.17-1.67-.5-.45-.34-.67-.85-.67-1.54s.25-1.25.76-1.66c.51-.41,1.22-.61,2.12-.61h1.62s.06-.02.06-.06v-.53c0-.48-.13-.85-.4-1.13-.27-.28-.68-.41-1.24-.41-.45,0-.81.09-1.09.26-.28.17-.45.41-.52.72-.03.09-.08.14-.17.13l-.76-.1c-.1-.02-.14-.06-.13-.11.07-.52.35-.95.84-1.27s1.09-.49,1.82-.49c.84,0,1.49.21,1.95.64ZM77.33,109.45c.4-.28.6-.65.6-1.11v-1.09s-.02-.06-.06-.06h-1.47c-.62,0-1.11.13-1.48.38-.37.25-.56.6-.56,1.05,0,.41.14.72.43.93.28.21.66.31,1.11.31.55,0,1.03-.14,1.43-.41Z"/>
    <path d="M81,110.47v-9.52c0-.09.05-.14.14-.14h.71c.09,0,.14.05.14.14v9.52c0,.09-.05.14-.14.14h-.71c-.09,0-.14-.05-.14-.14Z"/>
    <path d="M39.59,118.82c-.19.23-.28.62-.28,1.17v.28s.02.06.06.06h1.57c.09,0,.14.05.14.14v.63c0,.09-.05.14-.14.14h-1.57s-.06.02-.06.06v5.98c0,.09-.05.14-.14.14h-.7c-.09,0-.14-.05-.14-.14v-5.98s-.02-.06-.06-.06h-.94c-.09,0-.14-.05-.14-.14v-.63c0-.09.05-.14.14-.14h.94s.06-.02.06-.06v-.34c0-.58.06-1.03.2-1.36.13-.33.36-.57.68-.73.32-.15.77-.23,1.35-.23h.41c.09,0,.14.05.14.14v.59c0,.09-.05.14-.14.14h-.32c-.51,0-.86.11-1.05.34Z"/>
    <path d="M47.24,120.32h.71c.09,0,.14.05.14.14v6.8c0,.09-.05.14-.14.14h-.71c-.09,0-.14-.05-.14-.14v-.6s0-.03-.03-.04c-.02,0-.03,0-.04.01-.39.58-1.01.87-1.86.87-.45,0-.86-.09-1.24-.27-.38-.18-.68-.45-.9-.79s-.33-.76-.33-1.25v-4.73c0-.09.05-.14.14-.14h.71c.09,0,.14.05.14.14v4.44c0,.53.15.95.45,1.27.3.31.7.47,1.22.47s.95-.16,1.27-.48c.31-.32.47-.74.47-1.26v-4.44c0-.09.05-.14.14-.14Z"/>
    <path d="M55.05,120.88c.44.44.67,1.03.67,1.76v4.62c0,.09-.05.14-.14.14h-.71c-.09,0-.14-.05-.14-.14v-4.42c0-.51-.16-.93-.47-1.26-.31-.33-.72-.49-1.21-.49s-.93.16-1.25.48-.48.73-.48,1.25v4.45c0,.09-.05.14-.14.14h-.71c-.09,0-.14-.05-.14-.14v-6.8c0-.09.05-.14.14-.14h.71c.09,0,.14.05.14.14v.6s0,.03.02.04c.01,0,.03,0,.04-.01.41-.58,1.04-.87,1.89-.87.75,0,1.34.22,1.79.66Z"/>
    <path d="M62.31,117.61h.71c.09,0,.14.05.14.14v9.52c0,.09-.05.14-.14.14h-.71c-.09,0-.14-.05-.14-.14v-.59s0-.03-.02-.04c-.01,0-.03,0-.05.02-.21.27-.46.48-.76.63-.3.15-.64.22-1.01.22-.65,0-1.2-.17-1.64-.5-.44-.34-.75-.79-.92-1.37-.13-.42-.2-1.01-.2-1.78s.06-1.35.17-1.74c.17-.6.48-1.07.92-1.41.45-.34,1-.51,1.67-.51.36,0,.7.07,1.01.22.31.15.56.35.77.62.02.02.04.03.05.02.01,0,.02-.02.02-.04v-3.29c0-.09.05-.14.14-.14ZM62.1,124.91c.04-.25.06-.6.06-1.05s-.02-.8-.06-1.06c-.04-.26-.1-.48-.2-.68-.11-.32-.3-.57-.55-.76-.26-.19-.56-.29-.92-.29-.37,0-.7.09-.97.28-.27.19-.47.43-.59.74-.11.21-.19.44-.24.69-.05.26-.08.61-.08,1.07s.02.78.06,1.03c.04.25.1.47.2.67.11.34.31.6.59.8.28.2.62.29,1.01.29s.69-.1.94-.29c.25-.2.44-.46.56-.78.08-.19.14-.41.18-.66Z"/>
    <path d="M43.08,143.49c-.46.46-1.11.73-1.94.81-.04,0-.06.02-.06.06v1.01c.01.09-.03.14-.13.14h-.62c-.09,0-.14-.05-.14-.14v-1.01s0-.06-.04-.06c-.85-.09-1.51-.37-1.99-.83s-.71-1.05-.71-1.77v-.43c0-.09.05-.14.14-.14h.63c.09,0,.14.05.14.14v.38c0,.54.21.98.64,1.31.42.33,1.01.5,1.76.5.67,0,1.19-.15,1.54-.46s.53-.71.53-1.21c0-.33-.08-.61-.25-.84-.16-.23-.41-.45-.75-.66-.34-.21-.82-.44-1.44-.71-.67-.28-1.19-.53-1.55-.74s-.65-.48-.88-.81c-.23-.33-.34-.75-.34-1.25,0-.72.22-1.29.66-1.71.44-.42,1.04-.67,1.82-.75.04,0,.06-.02.06-.06v-1.09c-.01-.09.03-.14.13-.14h.6c.09,0,.14.05.14.14v1.11s0,.06.04.06c.82.09,1.47.37,1.93.84s.7,1.06.7,1.79v.31c0,.09-.05.14-.14.14h-.66c-.09,0-.14-.05-.14-.14v-.25c0-.54-.2-.98-.6-1.33s-.96-.52-1.67-.52c-.63,0-1.11.14-1.44.41-.34.27-.5.66-.5,1.18,0,.34.08.61.25.83s.4.41.7.57c.3.16.77.38,1.41.64.64.28,1.17.54,1.56.78s.71.54.95.89c.24.35.36.78.36,1.28,0,.71-.23,1.29-.69,1.75Z"/>
    <path d="M51.05,141.2c0,.58-.07,1.05-.22,1.4-.2.54-.51.96-.94,1.26-.43.3-.97.45-1.61.45s-1.24-.16-1.69-.48-.78-.77-.97-1.34c-.11-.37-.17-.81-.17-1.32v-4.37c0-.77.25-1.37.76-1.83s1.16-.68,1.97-.68,1.43.22,1.92.66.73,1.02.73,1.74v.2c0,.09-.05.14-.14.14h-.71c-.09,0-.14-.05-.14-.14v-.11c0-.48-.15-.86-.46-1.16-.31-.3-.71-.45-1.19-.45s-.92.16-1.25.47c-.33.31-.49.73-.49,1.24v2.06s0,.03.03.03c.02,0,.03,0,.04-.02.41-.56,1.03-.84,1.86-.84.59,0,1.08.13,1.48.39.4.26.7.63.9,1.11.2.42.29.95.29,1.6ZM50.06,141.2c0-.49-.07-.86-.2-1.12-.11-.35-.31-.62-.59-.81-.28-.2-.63-.29-1.04-.29s-.76.1-1.04.3-.48.48-.59.83c-.11.29-.17.67-.17,1.13,0,.41.05.75.14,1.02.11.35.31.64.59.85.29.21.64.32,1.07.32.4,0,.75-.1,1.04-.3s.49-.49.6-.88c.11-.29.17-.64.17-1.06Z"/>
    <path d="M53.12,143.96c-.15-.15-.22-.34-.22-.56s.07-.42.22-.57c.14-.14.33-.22.57-.22s.41.07.56.22.22.33.22.57-.07.41-.22.56-.34.22-.56.22-.42-.07-.57-.22Z"/>
    <path d="M62.08,141.46c0,.64-.14,1.19-.41,1.64-.22.38-.54.68-.95.9-.41.21-.89.32-1.43.32s-1.05-.11-1.47-.33c-.42-.22-.74-.54-.97-.96-.26-.47-.39-.99-.39-1.58,0-.49.1-.96.29-1.4.21-.47.55-.82,1.02-1.05.05-.02.05-.04,0-.07-.31-.18-.56-.42-.76-.71-.28-.4-.42-.86-.42-1.37s.14-1,.42-1.43c.22-.36.53-.65.93-.85.4-.2.84-.3,1.34-.3s.96.1,1.34.3c.38.2.69.48.91.85.27.44.41.92.41,1.43s-.14.98-.42,1.4c-.17.25-.42.48-.74.69-.05.03-.05.05,0,.07.48.23.82.6,1.02,1.09.18.38.27.84.27,1.37ZM61.09,141.39c0-.44-.08-.82-.22-1.13-.28-.62-.81-.92-1.58-.92s-1.25.29-1.54.87c-.17.3-.25.7-.25,1.2s.1.95.31,1.27c.32.51.82.77,1.5.77s1.14-.24,1.44-.73c.23-.35.35-.8.35-1.33ZM57.59,136.84c0,.39.1.73.29,1.02.15.23.34.41.58.53.24.12.51.18.82.18s.58-.06.83-.19c.24-.13.44-.31.59-.54.18-.25.27-.59.27-1.02,0-.31-.07-.59-.21-.84-.14-.26-.34-.47-.59-.62-.25-.15-.55-.23-.9-.23s-.62.08-.87.24-.45.37-.59.64c-.15.28-.22.56-.22.83Z"/>
    <path d="M69.17,139.18c.5.21.89.51,1.15.91.26.4.39.89.39,1.46,0,.84-.27,1.49-.8,1.96-.54.47-1.24.7-2.12.7h-3.39c-.09,0-.14-.05-.14-.14v-9.52c0-.09.05-.14.14-.14h3.29c.91,0,1.62.22,2.13.67.52.45.78,1.08.78,1.89,0,.51-.12.95-.37,1.31-.25.36-.6.63-1.06.82-.05.03-.05.06,0,.08ZM65.25,135.33v3.36s.02.06.06.06h2.38c.59,0,1.06-.15,1.41-.46.35-.31.52-.72.52-1.23,0-.54-.17-.97-.52-1.3-.35-.32-.82-.48-1.41-.48h-2.38s-.06.02-.06.06ZM69.19,142.82c.35-.34.53-.79.53-1.36s-.18-1.02-.54-1.36c-.36-.34-.84-.51-1.45-.51h-2.42s-.06.02-.06.06v3.63s.02.06.06.06h2.48c.59,0,1.06-.17,1.41-.5Z"/>
  </g>
  <g>
    <path d="M170.66,103.67h-5.15s-.06.02-.06.06v3.46s.02.06.06.06h3.61c.09,0,.14.05.14.14v.59c0,.09-.05.14-.14.14h-3.61s-.06.02-.06.06v3.51s.02.06.06.06h5.15c.09,0,.14.05.14.14v.59c0,.09-.05.14-.14.14h-6.06c-.09,0-.14-.05-.14-.14v-9.52c0-.09.05-.14.14-.14h6.06c.09,0,.14.05.14.14v.59c0,.09-.05.14-.14.14Z"/>
    <path d="M177.46,106.08c.44.44.67,1.03.67,1.76v4.62c0,.09-.05.14-.14.14h-.71c-.09,0-.14-.05-.14-.14v-4.42c0-.51-.16-.93-.47-1.26-.31-.33-.72-.49-1.21-.49s-.93.16-1.25.48-.48.73-.48,1.25v4.45c0,.09-.05.14-.14.14h-.71c-.09,0-.14-.05-.14-.14v-6.8c0-.09.05-.14.14-.14h.71c.09,0,.14.05.14.14v.6s0,.03.02.04c.01,0,.03,0,.04-.01.41-.58,1.04-.87,1.89-.87.75,0,1.34.22,1.79.66Z"/>
    <path d="M183.32,106.35h-1.58s-.06.02-.06.06v4.13c0,.45.1.76.3.94.2.18.52.27.94.27h.35c.09,0,.14.05.14.14v.57c0,.09-.05.14-.14.14-.11,0-.29.01-.52.01-.67,0-1.18-.13-1.53-.38-.35-.25-.52-.72-.52-1.4v-4.44s-.02-.06-.06-.06h-.85c-.09,0-.14-.05-.14-.14v-.55c0-.09.05-.14.14-.14h.85s.06-.02.06-.06v-1.62c0-.09.05-.14.14-.14h.69c.09,0,.14.05.14.14v1.62s.02.06.06.06h1.58c.09,0,.14.05.14.14v.55c0,.09-.05.14-.14.14Z"/>
    <path d="M190.65,108.85v.45c0,.09-.05.14-.14.14h-4.52s-.06.02-.06.06c.02.51.05.84.08.99.1.42.32.75.66.99.34.24.77.36,1.29.36.39,0,.74-.09,1.04-.27s.53-.43.7-.76c.06-.08.12-.1.2-.06l.55.32c.07.05.09.11.06.2-.23.45-.58.8-1.05,1.06-.47.26-1,.38-1.61.38-.66,0-1.22-.17-1.67-.48s-.77-.74-.97-1.29c-.17-.45-.25-1.09-.25-1.93,0-.39,0-.71.02-.96.01-.25.05-.47.11-.67.16-.61.48-1.09.96-1.46.48-.36,1.06-.55,1.74-.55.85,0,1.5.21,1.96.64.46.43.74,1.04.85,1.82.04.26.06.59.06.98ZM186.64,106.64c-.3.24-.5.56-.59.96-.06.2-.09.51-.11.95,0,.04.02.06.06.06h3.63s.06-.02.06-.06c-.02-.42-.05-.72-.08-.9-.1-.42-.31-.75-.62-1-.31-.25-.71-.37-1.18-.37s-.84.12-1.14.36Z"/>
    <path d="M196.28,105.63c.07.04.1.1.08.18l-.15.69c-.03.09-.09.12-.18.08-.16-.06-.34-.1-.55-.1h-.18c-.49.03-.89.21-1.2.55s-.48.77-.48,1.29v4.13c0,.09-.05.14-.14.14h-.71c-.09,0-.14-.05-.14-.14v-6.8c0-.09.05-.14.14-.14h.71c.09,0,.14.05.14.14v.85s0,.04.02.05c.01,0,.03,0,.04-.02.2-.35.45-.61.75-.81.3-.19.66-.29,1.06-.29.31,0,.57.06.8.18Z"/>
    <path d="M203.43,109.06c0,.75-.06,1.33-.18,1.74-.17.6-.47,1.07-.92,1.41-.44.34-1,.51-1.67.51-.36,0-.7-.07-1.01-.22-.31-.14-.56-.35-.77-.62-.02-.02-.04-.03-.05-.02-.01,0-.02.02-.02.04v3.29c0,.09-.05.14-.14.14h-.71c-.09,0-.14-.05-.14-.14v-9.52c0-.09.05-.14.14-.14h.71c.09,0,.14.05.14.14v.59s0,.03.02.04c.01,0,.03,0,.05-.02.21-.27.46-.48.76-.63.3-.15.64-.22,1.01-.22.65,0,1.2.17,1.65.5s.75.79.92,1.37c.14.45.21,1.04.21,1.78ZM202.35,110.14c.05-.26.08-.61.08-1.07s-.02-.78-.06-1.03c-.04-.25-.1-.47-.2-.67-.11-.34-.31-.6-.6-.8-.28-.2-.62-.29-1.01-.29s-.69.1-.94.29c-.25.2-.44.46-.56.78-.08.19-.14.41-.18.66-.04.25-.06.6-.06,1.05s.02.8.06,1.06c.04.26.1.48.2.68.11.32.3.57.55.76.26.19.56.29.92.29.37,0,.7-.09.97-.28.28-.19.47-.43.59-.74.1-.21.18-.44.23-.69Z"/>
    <path d="M209.1,105.63c.07.04.1.1.08.18l-.15.69c-.03.09-.09.12-.18.08-.16-.06-.34-.1-.55-.1h-.18c-.49.03-.89.21-1.2.55s-.48.77-.48,1.29v4.13c0,.09-.05.14-.14.14h-.71c-.09,0-.14-.05-.14-.14v-6.8c0-.09.05-.14.14-.14h.71c.09,0,.14.05.14.14v.85s0,.04.02.05c.01,0,.03,0,.04-.02.2-.35.45-.61.75-.81.3-.19.66-.29,1.06-.29.31,0,.57.06.8.18Z"/>
    <path d="M210.66,104.01c-.15-.15-.22-.34-.22-.56s.08-.42.22-.57c.15-.14.34-.22.56-.22s.41.07.56.22c.15.15.22.33.22.57s-.08.41-.22.56c-.15.15-.34.22-.56.22s-.41-.07-.56-.22ZM210.69,112.45v-6.8c0-.09.05-.14.14-.14h.71c.09,0,.14.05.14.14v6.8c0,.09-.05.14-.14.14h-.71c-.09,0-.14-.05-.14-.14Z"/>
    <path d="M215.05,112.42c-.41-.17-.72-.39-.94-.67-.22-.28-.33-.59-.33-.94v-.17c0-.09.05-.14.14-.14h.67c.09,0,.14.05.14.14v.11c0,.31.16.58.48.81.32.23.73.34,1.21.34s.88-.11,1.18-.33c.3-.22.45-.5.45-.83,0-.23-.08-.42-.23-.57-.15-.15-.34-.27-.55-.35s-.54-.19-.97-.32c-.52-.15-.95-.3-1.29-.45-.34-.15-.62-.36-.85-.62-.23-.27-.34-.6-.34-1.01,0-.6.23-1.07.7-1.43.47-.35,1.08-.53,1.85-.53.51,0,.97.08,1.37.25.4.17.7.4.92.69.21.29.32.62.32.99v.04c0,.09-.05.14-.14.14h-.66c-.09,0-.14-.05-.14-.14v-.04c0-.32-.15-.58-.46-.8-.3-.21-.71-.32-1.22-.32-.48,0-.86.1-1.15.29-.29.19-.43.46-.43.79,0,.32.14.56.42.73.28.17.71.34,1.3.5.54.16.98.31,1.32.45s.62.34.87.61c.24.27.36.61.36,1.04,0,.61-.24,1.09-.71,1.46-.48.36-1.11.55-1.89.55-.52,0-.99-.08-1.39-.25Z"/>
    <path d="M226.34,108.85v.45c0,.09-.05.14-.14.14h-4.52s-.06.02-.06.06c.02.51.05.84.08.99.1.42.32.75.66.99.34.24.77.36,1.29.36.39,0,.74-.09,1.04-.27s.53-.43.7-.76c.06-.08.12-.1.2-.06l.55.32c.07.05.09.11.06.2-.23.45-.58.8-1.05,1.06-.47.26-1,.38-1.61.38-.66,0-1.22-.17-1.67-.48s-.77-.74-.97-1.29c-.17-.45-.25-1.09-.25-1.93,0-.39,0-.71.02-.96.01-.25.05-.47.11-.67.16-.61.48-1.09.96-1.46.48-.36,1.06-.55,1.74-.55.85,0,1.5.21,1.96.64.46.43.74,1.04.85,1.82.04.26.06.59.06.98ZM222.33,106.64c-.3.24-.5.56-.59.96-.06.2-.09.51-.11.95,0,.04.02.06.06.06h3.63s.06-.02.06-.06c-.02-.42-.05-.72-.08-.9-.1-.42-.31-.75-.62-1-.31-.25-.71-.37-1.18-.37s-.84.12-1.14.36Z"/>
    <path d="M168.8,119.61h.71c.09,0,.14.05.14.14v9.52c0,.09-.05.14-.14.14h-.71c-.09,0-.14-.05-.14-.14v-.59s0-.03-.02-.04c-.01,0-.03,0-.05.02-.21.27-.46.48-.76.63-.3.15-.64.22-1.01.22-.65,0-1.2-.17-1.64-.5-.44-.34-.75-.79-.92-1.37-.13-.42-.2-1.01-.2-1.78s.06-1.35.17-1.74c.17-.6.48-1.07.92-1.41.45-.34,1-.51,1.67-.51.36,0,.7.07,1.01.22.31.15.56.35.77.62.02.02.04.03.05.02.01,0,.02-.02.02-.04v-3.29c0-.09.05-.14.14-.14ZM168.59,126.91c.04-.25.06-.6.06-1.05s-.02-.8-.06-1.06c-.04-.26-.1-.48-.2-.68-.11-.32-.3-.57-.55-.76-.26-.19-.56-.29-.92-.29-.37,0-.7.09-.97.28-.27.19-.47.43-.59.74-.11.21-.19.44-.24.69-.05.26-.08.61-.08,1.07s.02.78.06,1.03c.04.25.1.47.2.67.11.34.31.6.59.8.28.2.62.29,1.01.29s.69-.1.94-.29c.25-.2.44-.46.56-.78.08-.19.14-.41.18-.66Z"/>
    <path d="M177.39,125.65v.45c0,.09-.05.14-.14.14h-4.52s-.06.02-.06.06c.02.51.05.84.08.99.1.42.32.75.66.99.34.24.77.36,1.29.36.39,0,.74-.09,1.04-.27s.53-.43.7-.76c.06-.08.12-.1.2-.06l.55.32c.07.05.09.11.06.2-.23.45-.58.8-1.05,1.06-.47.26-1,.38-1.61.38-.66,0-1.22-.17-1.67-.48s-.77-.74-.97-1.29c-.17-.45-.25-1.09-.25-1.93,0-.39,0-.71.02-.96.01-.25.05-.47.11-.67.16-.61.48-1.09.96-1.46.48-.36,1.06-.55,1.74-.55.85,0,1.5.21,1.96.64.46.43.74,1.04.85,1.82.04.26.06.59.06.98ZM173.38,123.44c-.3.24-.5.56-.59.96-.06.2-.09.51-.11.95,0,.04.02.06.06.06h3.63s.06-.02.06-.06c-.02-.42-.05-.72-.08-.9-.1-.42-.31-.75-.62-1-.31-.25-.71-.37-1.18-.37s-.84.12-1.14.36Z"/>
    <path d="M185.08,125.86c0,.75-.06,1.33-.18,1.74-.17.6-.47,1.07-.92,1.41-.44.34-1,.51-1.67.51-.36,0-.7-.07-1.01-.22-.31-.14-.56-.35-.77-.62-.02-.02-.04-.03-.05-.02-.01,0-.02.02-.02.04v3.29c0,.09-.05.14-.14.14h-.71c-.09,0-.14-.05-.14-.14v-9.52c0-.09.05-.14.14-.14h.71c.09,0,.14.05.14.14v.59s0,.03.02.04c.01,0,.03,0,.05-.02.21-.27.46-.48.76-.63.3-.15.64-.22,1.01-.22.65,0,1.2.17,1.65.5s.75.79.92,1.37c.14.45.21,1.04.21,1.78ZM184,126.94c.05-.26.08-.61.08-1.07s-.02-.78-.06-1.03c-.04-.25-.1-.47-.2-.67-.11-.34-.31-.6-.6-.8-.28-.2-.62-.29-1.01-.29s-.69.1-.94.29c-.25.2-.44.46-.56.78-.08.19-.14.41-.18.66-.04.25-.06.6-.06,1.05s.02.8.06,1.06c.04.26.1.48.2.68.11.32.3.57.55.76.26.19.56.29.92.29.37,0,.7-.09.97-.28.28-.19.47-.43.59-.74.1-.21.18-.44.23-.69Z"/>
    <path d="M191.49,122.85c.46.43.69,1,.69,1.71v4.7c0,.09-.05.14-.14.14h-.71c-.09,0-.14-.05-.14-.14v-.57s0-.03-.02-.04c-.01,0-.03,0-.05.01-.23.28-.54.49-.91.64-.37.14-.79.22-1.25.22-.66,0-1.22-.17-1.67-.5-.45-.34-.67-.85-.67-1.54s.25-1.25.76-1.66c.51-.41,1.22-.61,2.12-.61h1.62s.06-.02.06-.06v-.53c0-.48-.13-.85-.4-1.13-.27-.28-.68-.41-1.24-.41-.45,0-.81.09-1.09.26-.28.17-.45.41-.52.72-.03.09-.08.14-.17.13l-.76-.1c-.1-.02-.14-.06-.13-.11.07-.52.35-.95.84-1.27s1.09-.49,1.82-.49c.84,0,1.49.21,1.95.64ZM190.58,128.25c.4-.28.6-.65.6-1.11v-1.09s-.02-.06-.06-.06h-1.47c-.62,0-1.11.13-1.48.38-.37.25-.56.6-.56,1.05,0,.41.14.72.43.93.28.21.66.31,1.11.31.55,0,1.03-.14,1.43-.41Z"/>
    <path d="M197.9,122.43c.07.04.1.1.08.18l-.15.69c-.03.09-.09.12-.18.08-.16-.06-.34-.1-.55-.1h-.18c-.49.03-.89.21-1.2.55s-.48.77-.48,1.29v4.13c0,.09-.05.14-.14.14h-.71c-.09,0-.14-.05-.14-.14v-6.8c0-.09.05-.14.14-.14h.71c.09,0,.14.05.14.14v.85s0,.04.02.05c.01,0,.03,0,.04-.02.2-.35.45-.61.75-.81.3-.19.66-.29,1.06-.29.31,0,.57.06.8.18Z"/>
    <path d="M202.58,123.15h-1.58s-.06.02-.06.06v4.13c0,.45.1.76.3.94.2.18.52.27.94.27h.35c.09,0,.14.05.14.14v.57c0,.09-.05.14-.14.14-.11,0-.29.01-.52.01-.67,0-1.18-.13-1.53-.38-.35-.25-.52-.72-.52-1.4v-4.44s-.02-.06-.06-.06h-.85c-.09,0-.14-.05-.14-.14v-.55c0-.09.05-.14.14-.14h.85s.06-.02.06-.06v-1.62c0-.09.05-.14.14-.14h.69c.09,0,.14.05.14.14v1.62s.02.06.06.06h1.58c.09,0,.14.05.14.14v.55c0,.09-.05.14-.14.14Z"/>
    <path d="M213.46,122.85c.41.42.61.99.61,1.72v4.69c0,.09-.05.14-.14.14h-.7c-.09,0-.14-.05-.14-.14v-4.49c0-.51-.15-.92-.44-1.23s-.68-.46-1.15-.46-.89.15-1.2.45c-.3.3-.46.7-.46,1.2v4.52c0,.09-.05.14-.14.14h-.71c-.09,0-.14-.05-.14-.14v-4.49c0-.51-.14-.92-.43-1.23-.29-.3-.68-.46-1.16-.46s-.89.15-1.18.45c-.29.3-.44.7-.44,1.2v4.52c0,.09-.05.14-.14.14h-.71c-.09,0-.14-.05-.14-.14v-6.8c0-.09.05-.14.14-.14h.71c.09,0,.14.05.14.14v.56s0,.03.02.03c.01,0,.03,0,.05-.02.21-.27.47-.47.79-.61.32-.14.68-.2,1.07-.2.49,0,.9.1,1.25.29.34.2.61.48.78.85.02.05.04.05.07,0,.21-.38.49-.67.87-.86s.8-.29,1.27-.29c.7,0,1.25.21,1.66.63Z"/>
    <path d="M221.61,125.65v.45c0,.09-.05.14-.14.14h-4.52s-.06.02-.06.06c.02.51.05.84.08.99.1.42.32.75.66.99.34.24.77.36,1.29.36.39,0,.74-.09,1.04-.27s.53-.43.7-.76c.06-.08.12-.1.2-.06l.55.32c.07.05.09.11.06.2-.23.45-.58.8-1.05,1.06-.47.26-1,.38-1.61.38-.66,0-1.22-.17-1.67-.48s-.77-.74-.97-1.29c-.17-.45-.25-1.09-.25-1.93,0-.39,0-.71.02-.96.01-.25.05-.47.11-.67.16-.61.48-1.09.96-1.46.48-.36,1.06-.55,1.74-.55.85,0,1.5.21,1.96.64.46.43.74,1.04.85,1.82.04.26.06.59.06.98ZM217.59,123.44c-.3.24-.5.56-.59.96-.06.2-.09.51-.11.95,0,.04.02.06.06.06h3.63s.06-.02.06-.06c-.02-.42-.05-.72-.08-.9-.1-.42-.31-.75-.62-1-.31-.25-.71-.37-1.18-.37s-.84.12-1.14.36Z"/>
    <path d="M228.3,122.88c.44.44.67,1.03.67,1.76v4.62c0,.09-.05.14-.14.14h-.71c-.09,0-.14-.05-.14-.14v-4.42c0-.51-.16-.93-.47-1.26-.31-.33-.72-.49-1.21-.49s-.93.16-1.25.48-.48.73-.48,1.25v4.45c0,.09-.05.14-.14.14h-.71c-.09,0-.14-.05-.14-.14v-6.8c0-.09.05-.14.14-.14h.71c.09,0,.14.05.14.14v.6s0,.03.02.04c.01,0,.03,0,.04-.01.41-.58,1.04-.87,1.89-.87.75,0,1.34.22,1.79.66Z"/>
    <path d="M234.16,123.15h-1.58s-.06.02-.06.06v4.13c0,.45.1.76.3.94.2.18.52.27.94.27h.35c.09,0,.14.05.14.14v.57c0,.09-.05.14-.14.14-.11,0-.29.01-.52.01-.67,0-1.18-.13-1.53-.38-.35-.25-.52-.72-.52-1.4v-4.44s-.02-.06-.06-.06h-.85c-.09,0-.14-.05-.14-.14v-.55c0-.09.05-.14.14-.14h.85s.06-.02.06-.06v-1.62c0-.09.05-.14.14-.14h.69c.09,0,.14.05.14.14v1.62s.02.06.06.06h1.58c.09,0,.14.05.14.14v.55c0,.09-.05.14-.14.14Z"/>
    <path d="M237.15,129.22c-.41-.17-.72-.39-.94-.67-.22-.28-.33-.59-.33-.94v-.17c0-.09.05-.14.14-.14h.67c.09,0,.14.05.14.14v.11c0,.31.16.58.48.81.32.23.73.34,1.21.34s.88-.11,1.18-.33c.3-.22.45-.5.45-.83,0-.23-.08-.42-.23-.57-.15-.15-.34-.27-.55-.35s-.54-.19-.97-.32c-.52-.15-.95-.3-1.29-.45-.34-.15-.62-.36-.85-.62-.23-.27-.34-.6-.34-1.01,0-.6.23-1.07.7-1.43.47-.35,1.08-.53,1.85-.53.51,0,.97.08,1.37.25.4.17.7.4.92.69.21.29.32.62.32.99v.04c0,.09-.05.14-.14.14h-.66c-.09,0-.14-.05-.14-.14v-.04c0-.32-.15-.58-.46-.8-.3-.21-.71-.32-1.22-.32-.48,0-.86.1-1.15.29-.29.19-.43.46-.43.79,0,.32.14.56.42.73.28.17.71.34,1.3.5.54.16.98.31,1.32.45s.62.34.87.61c.24.27.36.61.36,1.04,0,.61-.24,1.09-.71,1.46-.48.36-1.11.55-1.89.55-.52,0-.99-.08-1.39-.25Z"/>
    <path d="M169.51,145.49c-.46.46-1.11.73-1.94.81-.04,0-.06.02-.06.06v1.01c.01.09-.03.14-.13.14h-.62c-.09,0-.14-.05-.14-.14v-1.01s0-.06-.04-.06c-.85-.09-1.51-.37-1.99-.83s-.71-1.05-.71-1.77v-.43c0-.09.05-.14.14-.14h.63c.09,0,.14.05.14.14v.38c0,.54.21.98.64,1.31.42.33,1.01.5,1.76.5.67,0,1.19-.15,1.54-.46s.53-.71.53-1.21c0-.33-.08-.61-.25-.84-.16-.23-.41-.45-.75-.66-.34-.21-.82-.44-1.44-.71-.67-.28-1.19-.53-1.55-.74s-.65-.48-.88-.81c-.23-.33-.34-.75-.34-1.25,0-.72.22-1.29.66-1.71.44-.42,1.04-.67,1.82-.75.04,0,.06-.02.06-.06v-1.09c-.01-.09.03-.14.13-.14h.6c.09,0,.14.05.14.14v1.11s0,.06.04.06c.82.09,1.47.37,1.93.84s.7,1.06.7,1.79v.31c0,.09-.05.14-.14.14h-.66c-.09,0-.14-.05-.14-.14v-.25c0-.54-.2-.98-.6-1.33s-.96-.52-1.67-.52c-.63,0-1.11.14-1.44.41-.34.27-.5.66-.5,1.18,0,.34.08.61.25.83s.4.41.7.57c.3.16.77.38,1.41.64.64.28,1.17.54,1.56.78s.71.54.95.89c.24.35.36.78.36,1.28,0,.71-.23,1.29-.69,1.75Z"/>
    <path d="M177.35,139.44v4.37c0,.77-.25,1.37-.76,1.83s-1.16.68-1.97.68-1.42-.22-1.91-.67c-.49-.44-.74-1.02-.74-1.73v-.2c0-.09.05-.14.14-.14h.71c.09,0,.14.05.14.14v.11c0,.48.15.86.46,1.16.31.3.71.45,1.19.45s.92-.16,1.25-.47c.33-.31.49-.73.49-1.24v-2.04s0-.03-.03-.04c-.02,0-.03,0-.04.02-.41.55-1.03.83-1.85.83-.59,0-1.08-.13-1.48-.39s-.7-.63-.9-1.11c-.2-.39-.29-.92-.29-1.6,0-.57.07-1.04.21-1.4.2-.54.51-.96.95-1.26.43-.3.97-.45,1.6-.45.67,0,1.24.16,1.7.48.46.32.78.77.96,1.34.11.37.17.81.17,1.32ZM175.61,141.34c.29-.2.48-.48.6-.83.1-.27.15-.65.15-1.13,0-.4-.04-.74-.13-1.02-.11-.35-.31-.64-.6-.85-.29-.21-.64-.32-1.06-.32s-.75.1-1.04.3c-.29.2-.49.49-.62.88-.1.26-.15.62-.15,1.06,0,.48.06.85.18,1.12.11.34.31.6.59.8.28.2.63.3,1.04.3s.76-.1,1.04-.3Z"/>
    <path d="M179.63,145.96c-.15-.15-.22-.34-.22-.56s.07-.42.22-.57c.14-.14.33-.22.57-.22s.41.07.56.22.22.33.22.57-.07.41-.22.56-.34.22-.56.22-.42-.07-.57-.22Z"/>
    <path d="M184.86,136.41h.76c.09,0,.14.05.14.14v9.52c0,.09-.05.14-.14.14h-.71c-.09,0-.14-.05-.14-.14v-8.53s0-.03-.02-.04-.03,0-.05,0l-1.48.6h-.06c-.06.01-.09-.02-.11-.1l-.07-.53v-.03s.03-.09.1-.14l1.61-.85c.06-.03.12-.04.18-.04Z"/>
    <path d="M193.29,141.18c.5.21.89.51,1.15.91.26.4.39.89.39,1.46,0,.84-.27,1.49-.8,1.96-.54.47-1.24.7-2.12.7h-3.39c-.09,0-.14-.05-.14-.14v-9.52c0-.09.05-.14.14-.14h3.29c.91,0,1.62.22,2.13.67.52.45.78,1.08.78,1.89,0,.51-.12.95-.37,1.31-.25.36-.6.63-1.06.82-.05.03-.05.06,0,.08ZM189.36,137.33v3.36s.02.06.06.06h2.38c.59,0,1.06-.15,1.41-.46.35-.31.52-.72.52-1.23,0-.54-.17-.97-.52-1.3-.35-.32-.82-.48-1.41-.48h-2.38s-.06.02-.06.06ZM193.31,144.82c.35-.34.53-.79.53-1.36s-.18-1.02-.54-1.36c-.36-.34-.84-.51-1.45-.51h-2.42s-.06.02-.06.06v3.63s.02.06.06.06h2.48c.59,0,1.06-.17,1.41-.5Z"/>
  </g>
  <g>
    <path d="M170.44,220.01h.71c.09,0,.14.05.14.14v9.52c0,.09-.05.14-.14.14h-.7c-.07,0-.12-.03-.17-.1l-4.77-7.77s-.02-.04-.04-.03-.03.02-.03.05v7.71c.01.09-.03.14-.13.14h-.71c-.09,0-.14-.05-.14-.14v-9.52c0-.09.05-.14.14-.14h.7c.06,0,.12.03.17.1l4.77,7.77s.02.04.04.04c.02,0,.03-.02.03-.05v-7.71c-.01-.09.03-.14.13-.14Z"/>
    <path d="M174.69,229.4c-.49-.35-.82-.82-1.01-1.43-.13-.43-.2-1-.2-1.72s.07-1.29.2-1.71c.18-.6.51-1.07.99-1.41.49-.34,1.07-.52,1.76-.52s1.23.17,1.71.52c.48.35.81.81.99,1.4.13.4.2.98.2,1.72s-.07,1.33-.2,1.72c-.18.61-.51,1.08-.99,1.43s-1.06.52-1.73.52-1.25-.17-1.74-.52ZM177.58,228.68c.32-.25.53-.58.64-1,.08-.34.13-.81.13-1.41s-.04-1.09-.11-1.41c-.11-.42-.33-.75-.65-1-.32-.25-.71-.37-1.17-.37s-.84.12-1.16.37c-.32.25-.53.58-.64,1-.08.33-.11.8-.11,1.41s.04,1.09.11,1.41c.1.42.32.75.64,1,.32.25.72.37,1.18.37s.83-.12,1.15-.37Z"/>
    <path d="M186.08,223.28c.44.44.67,1.03.67,1.76v4.62c0,.09-.05.14-.14.14h-.71c-.09,0-.14-.05-.14-.14v-4.42c0-.51-.16-.93-.47-1.26-.31-.33-.72-.49-1.21-.49s-.93.16-1.25.48-.48.73-.48,1.25v4.45c0,.09-.05.14-.14.14h-.71c-.09,0-.14-.05-.14-.14v-6.8c0-.09.05-.14.14-.14h.71c.09,0,.14.05.14.14v.6s0,.03.02.04c.01,0,.03,0,.04-.01.41-.58,1.04-.87,1.89-.87.75,0,1.34.22,1.79.66Z"/>
    <path d="M188.23,225.75v-.59c0-.09.05-.14.14-.14h4.14c.09,0,.14.05.14.14v.59c0,.09-.05.14-.14.14h-4.14c-.09,0-.14-.05-.14-.14Z"/>
    <path d="M198.86,220.01h.71c.09,0,.14.05.14.14v9.52c0,.09-.05.14-.14.14h-.71c-.09,0-.14-.05-.14-.14v-.59s0-.03-.02-.04c-.01,0-.03,0-.05.02-.21.27-.46.48-.76.63-.3.15-.64.22-1.01.22-.65,0-1.2-.17-1.64-.5-.44-.34-.75-.79-.92-1.37-.13-.42-.2-1.01-.2-1.78s.06-1.35.17-1.74c.17-.6.48-1.07.92-1.41.45-.34,1-.51,1.67-.51.36,0,.7.07,1.01.22.31.15.56.35.77.62.02.02.04.03.05.02.01,0,.02-.02.02-.04v-3.29c0-.09.05-.14.14-.14ZM198.65,227.31c.04-.25.06-.6.06-1.05s-.02-.8-.06-1.06c-.04-.26-.1-.48-.2-.68-.11-.32-.3-.57-.55-.76-.26-.19-.56-.29-.92-.29-.37,0-.7.09-.97.28-.27.19-.47.43-.59.74-.11.21-.19.44-.24.69-.05.26-.08.61-.08,1.07s.02.78.06,1.03c.04.25.1.47.2.67.11.34.31.6.59.8.28.2.62.29,1.01.29s.69-.1.94-.29c.25-.2.44-.46.56-.78.08-.19.14-.41.18-.66Z"/>
    <path d="M202.08,221.21c-.15-.15-.22-.34-.22-.56s.08-.42.22-.57c.15-.14.34-.22.56-.22s.41.07.56.22c.15.15.22.33.22.57s-.08.41-.22.56c-.15.15-.34.22-.56.22s-.41-.07-.56-.22ZM202.1,229.65v-6.8c0-.09.05-.14.14-.14h.71c.09,0,.14.05.14.14v6.8c0,.09-.05.14-.14.14h-.71c-.09,0-.14-.05-.14-.14Z"/>
    <path d="M206.46,229.62c-.41-.17-.72-.39-.94-.67-.22-.28-.33-.59-.33-.94v-.17c0-.09.05-.14.14-.14h.67c.09,0,.14.05.14.14v.11c0,.31.16.58.48.81.32.23.73.34,1.21.34s.88-.11,1.18-.33c.3-.22.45-.5.45-.83,0-.23-.08-.42-.23-.57-.15-.15-.34-.27-.55-.35s-.54-.19-.97-.32c-.52-.15-.95-.3-1.29-.45-.34-.15-.62-.36-.85-.62-.23-.27-.34-.6-.34-1.01,0-.6.23-1.07.7-1.43.47-.35,1.08-.53,1.85-.53.51,0,.97.08,1.37.25.4.17.7.4.92.69.21.29.32.62.32.99v.04c0,.09-.05.14-.14.14h-.66c-.09,0-.14-.05-.14-.14v-.04c0-.32-.15-.58-.46-.8-.3-.21-.71-.32-1.22-.32-.48,0-.86.1-1.15.29-.29.19-.43.46-.43.79,0,.32.14.56.42.73.28.17.71.34,1.3.5.54.16.98.31,1.32.45s.62.34.87.61c.24.27.36.61.36,1.04,0,.61-.24,1.09-.71,1.46-.48.36-1.11.55-1.89.55-.52,0-.99-.08-1.39-.25Z"/>
    <path d="M213.21,229.39c-.48-.35-.81-.82-.99-1.42-.12-.41-.18-.99-.18-1.74,0-.67.06-1.24.18-1.71.17-.58.49-1.04.98-1.39s1.06-.52,1.74-.52,1.27.17,1.77.52c.5.35.82.77.97,1.29.05.17.07.31.08.42v.03c0,.07-.04.11-.13.13l-.7.1h-.03c-.07,0-.11-.04-.13-.13l-.04-.21c-.08-.35-.29-.66-.62-.9-.33-.25-.72-.37-1.19-.37s-.86.12-1.17.37c-.31.25-.52.58-.61.99-.08.35-.13.83-.13,1.41s.04,1.09.13,1.43c.09.42.3.75.61,1,.31.25.7.37,1.17.37s.85-.12,1.18-.36c.33-.24.54-.54.62-.92v-.11c.02-.09.08-.13.18-.11l.69.11c.09.02.14.07.13.15l-.06.28c-.14.54-.46.98-.97,1.32s-1.1.5-1.78.5-1.25-.17-1.73-.52Z"/>
    <path d="M223.2,222.83c.07.04.1.1.08.18l-.15.69c-.03.09-.09.12-.18.08-.16-.06-.34-.1-.55-.1h-.18c-.49.03-.89.21-1.2.55s-.48.77-.48,1.29v4.13c0,.09-.05.14-.14.14h-.71c-.09,0-.14-.05-.14-.14v-6.8c0-.09.05-.14.14-.14h.71c.09,0,.14.05.14.14v.85s0,.04.02.05c.01,0,.03,0,.04-.02.2-.35.45-.61.75-.81.3-.19.66-.29,1.06-.29.31,0,.57.06.8.18Z"/>
    <path d="M230.06,226.06v.45c0,.09-.05.14-.14.14h-4.52s-.06.02-.06.06c.02.51.05.84.08.99.1.42.32.75.66.99.34.24.77.36,1.29.36.39,0,.74-.09,1.04-.27s.53-.43.7-.76c.06-.08.12-.1.2-.06l.55.32c.07.05.09.11.06.2-.23.45-.58.8-1.05,1.06-.47.26-1,.38-1.61.38-.66,0-1.22-.17-1.67-.48s-.77-.74-.97-1.29c-.17-.45-.25-1.09-.25-1.93,0-.39,0-.71.02-.96.01-.25.05-.47.11-.67.16-.61.48-1.09.96-1.46.48-.36,1.06-.55,1.74-.55.85,0,1.5.21,1.96.64.46.43.74,1.04.85,1.82.04.26.06.59.06.98ZM226.05,223.84c-.3.24-.5.56-.59.96-.06.2-.09.51-.11.95,0,.04.02.06.06.06h3.63s.06-.02.06-.06c-.02-.42-.05-.72-.08-.9-.1-.42-.31-.75-.62-1-.31-.25-.71-.37-1.18-.37s-.84.12-1.14.36Z"/>
    <path d="M234.98,223.55h-1.58s-.06.02-.06.06v4.13c0,.45.1.76.3.94.2.18.52.27.94.27h.35c.09,0,.14.05.14.14v.57c0,.09-.05.14-.14.14-.11,0-.29.01-.52.01-.67,0-1.18-.13-1.53-.38-.35-.25-.52-.72-.52-1.4v-4.44s-.02-.06-.06-.06h-.85c-.09,0-.14-.05-.14-.14v-.55c0-.09.05-.14.14-.14h.85s.06-.02.06-.06v-1.62c0-.09.05-.14.14-.14h.69c.09,0,.14.05.14.14v1.62s.02.06.06.06h1.58c.09,0,.14.05.14.14v.55c0,.09-.05.14-.14.14Z"/>
    <path d="M237.15,221.21c-.15-.15-.22-.34-.22-.56s.08-.42.22-.57c.15-.14.34-.22.56-.22s.41.07.56.22c.15.15.22.33.22.57s-.08.41-.22.56c-.15.15-.34.22-.56.22s-.41-.07-.56-.22ZM237.17,229.65v-6.8c0-.09.05-.14.14-.14h.71c.09,0,.14.05.14.14v6.8c0,.09-.05.14-.14.14h-.71c-.09,0-.14-.05-.14-.14Z"/>
    <path d="M241.57,229.4c-.49-.35-.82-.82-1.01-1.43-.13-.43-.2-1-.2-1.72s.07-1.29.2-1.71c.18-.6.51-1.07.99-1.41.49-.34,1.07-.52,1.76-.52s1.23.17,1.71.52c.48.35.81.81.99,1.4.13.4.2.98.2,1.72s-.07,1.33-.2,1.72c-.18.61-.51,1.08-.99,1.43s-1.06.52-1.73.52-1.25-.17-1.74-.52ZM244.45,228.68c.32-.25.53-.58.64-1,.08-.34.13-.81.13-1.41s-.04-1.09-.11-1.41c-.11-.42-.33-.75-.65-1-.32-.25-.71-.37-1.17-.37s-.84.12-1.16.37c-.32.25-.53.58-.64,1-.08.33-.11.8-.11,1.41s.04,1.09.11,1.41c.1.42.32.75.64,1,.32.25.72.37,1.18.37s.83-.12,1.15-.37Z"/>
    <path d="M252.96,223.28c.44.44.67,1.03.67,1.76v4.62c0,.09-.05.14-.14.14h-.71c-.09,0-.14-.05-.14-.14v-4.42c0-.51-.16-.93-.47-1.26-.31-.33-.72-.49-1.21-.49s-.93.16-1.25.48-.48.73-.48,1.25v4.45c0,.09-.05.14-.14.14h-.71c-.09,0-.14-.05-.14-.14v-6.8c0-.09.05-.14.14-.14h.71c.09,0,.14.05.14.14v.6s0,.03.02.04c.01,0,.03,0,.04-.01.41-.58,1.04-.87,1.89-.87.75,0,1.34.22,1.79.66Z"/>
    <path d="M260.17,223.26c.46.43.69,1,.69,1.71v4.7c0,.09-.05.14-.14.14h-.71c-.09,0-.14-.05-.14-.14v-.57s0-.03-.02-.04c-.01,0-.03,0-.05.01-.23.28-.54.49-.91.64-.37.14-.79.22-1.25.22-.66,0-1.22-.17-1.67-.5-.45-.34-.67-.85-.67-1.54s.25-1.25.76-1.66c.51-.41,1.22-.61,2.12-.61h1.62s.06-.02.06-.06v-.53c0-.48-.13-.85-.4-1.13-.27-.28-.68-.41-1.24-.41-.45,0-.81.09-1.09.26-.28.17-.45.41-.52.72-.03.09-.08.14-.17.13l-.76-.1c-.1-.02-.14-.06-.13-.11.07-.52.35-.95.84-1.27s1.09-.49,1.82-.49c.84,0,1.49.21,1.95.64ZM259.27,228.65c.4-.28.6-.65.6-1.11v-1.09s-.02-.06-.06-.06h-1.47c-.62,0-1.11.13-1.48.38-.37.25-.56.6-.56,1.05,0,.41.14.72.43.93.28.21.66.31,1.11.31.55,0,1.03-.14,1.43-.41Z"/>
    <path d="M266.59,222.83c.07.04.1.1.08.18l-.15.69c-.03.09-.09.12-.18.08-.16-.06-.34-.1-.55-.1h-.18c-.49.03-.89.21-1.2.55s-.48.77-.48,1.29v4.13c0,.09-.05.14-.14.14h-.71c-.09,0-.14-.05-.14-.14v-6.8c0-.09.05-.14.14-.14h.71c.09,0,.14.05.14.14v.85s0,.04.02.05c.01,0,.03,0,.04-.02.2-.35.45-.61.75-.81.3-.19.66-.29,1.06-.29.31,0,.57.06.8.18Z"/>
    <path d="M268,232.47v-.56c0-.09.05-.14.14-.14h.06c.36,0,.65-.06.85-.16.2-.1.37-.28.52-.55s.3-.67.47-1.21c.02-.04.02-.06,0-.08l-2.37-6.89v-.06c-.01-.07.03-.1.11-.1h.74c.08,0,.14.04.17.11l1.82,5.66s.02.03.04.03.03,0,.04-.03l1.79-5.66c.03-.07.08-.11.17-.11h.73c.1,0,.14.05.11.15l-2.59,7.55c-.22.62-.43,1.09-.63,1.39s-.44.51-.74.62-.71.17-1.24.17h-.1c-.07,0-.1-.05-.1-.14Z"/>
    <path d="M166.01,238.02c-.19.23-.28.62-.28,1.17v.28s.02.06.06.06h1.57c.09,0,.14.05.14.14v.63c0,.09-.05.14-.14.14h-1.57s-.06.02-.06.06v5.98c0,.09-.05.14-.14.14h-.7c-.09,0-.14-.05-.14-.14v-5.98s-.02-.06-.06-.06h-.94c-.09,0-.14-.05-.14-.14v-.63c0-.09.05-.14.14-.14h.94s.06-.02.06-.06v-.34c0-.58.06-1.03.2-1.36.13-.33.36-.57.68-.73.32-.15.77-.23,1.35-.23h.41c.09,0,.14.05.14.14v.59c0,.09-.05.14-.14.14h-.32c-.51,0-.86.11-1.05.34Z"/>
    <path d="M173.67,239.52h.71c.09,0,.14.05.14.14v6.8c0,.09-.05.14-.14.14h-.71c-.09,0-.14-.05-.14-.14v-.6s0-.03-.03-.04c-.02,0-.03,0-.04.01-.39.58-1.01.87-1.86.87-.45,0-.86-.09-1.24-.27-.38-.18-.68-.45-.9-.79s-.33-.76-.33-1.25v-4.73c0-.09.05-.14.14-.14h.71c.09,0,.14.05.14.14v4.44c0,.53.15.95.45,1.27.3.31.7.47,1.22.47s.95-.16,1.27-.48c.31-.32.47-.74.47-1.26v-4.44c0-.09.05-.14.14-.14Z"/>
    <path d="M181.47,240.08c.44.44.67,1.03.67,1.76v4.62c0,.09-.05.14-.14.14h-.71c-.09,0-.14-.05-.14-.14v-4.42c0-.51-.16-.93-.47-1.26-.31-.33-.72-.49-1.21-.49s-.93.16-1.25.48-.48.73-.48,1.25v4.45c0,.09-.05.14-.14.14h-.71c-.09,0-.14-.05-.14-.14v-6.8c0-.09.05-.14.14-.14h.71c.09,0,.14.05.14.14v.6s0,.03.02.04c.01,0,.03,0,.04-.01.41-.58,1.04-.87,1.89-.87.75,0,1.34.22,1.79.66Z"/>
    <path d="M188.73,236.81h.71c.09,0,.14.05.14.14v9.52c0,.09-.05.14-.14.14h-.71c-.09,0-.14-.05-.14-.14v-.59s0-.03-.02-.04c-.01,0-.03,0-.05.02-.21.27-.46.48-.76.63-.3.15-.64.22-1.01.22-.65,0-1.2-.17-1.64-.5-.44-.34-.75-.79-.92-1.37-.13-.42-.2-1.01-.2-1.78s.06-1.35.17-1.74c.17-.6.48-1.07.92-1.41.45-.34,1-.51,1.67-.51.36,0,.7.07,1.01.22.31.15.56.35.77.62.02.02.04.03.05.02.01,0,.02-.02.02-.04v-3.29c0-.09.05-.14.14-.14ZM188.52,244.11c.04-.25.06-.6.06-1.05s-.02-.8-.06-1.06c-.04-.26-.1-.48-.2-.68-.11-.32-.3-.57-.55-.76-.26-.19-.56-.29-.92-.29-.37,0-.7.09-.97.28-.27.19-.47.43-.59.74-.11.21-.19.44-.24.69-.05.26-.08.61-.08,1.07s.02.78.06,1.03c.04.25.1.47.2.67.11.34.31.6.59.8.28.2.62.29,1.01.29s.69-.1.94-.29c.25-.2.44-.46.56-.78.08-.19.14-.41.18-.66Z"/>
    <path d="M192.77,246.42c-.41-.17-.72-.39-.94-.67-.22-.28-.33-.59-.33-.94v-.17c0-.09.05-.14.14-.14h.67c.09,0,.14.05.14.14v.11c0,.31.16.58.48.81.32.23.73.34,1.21.34s.88-.11,1.18-.33c.3-.22.45-.5.45-.83,0-.23-.08-.42-.23-.57-.15-.15-.34-.27-.55-.35s-.54-.19-.97-.32c-.52-.15-.95-.3-1.29-.45-.34-.15-.62-.36-.85-.62-.23-.27-.34-.6-.34-1.01,0-.6.23-1.07.7-1.43.47-.35,1.08-.53,1.85-.53.51,0,.97.08,1.37.25.4.17.7.4.92.69.21.29.32.62.32.99v.04c0,.09-.05.14-.14.14h-.66c-.09,0-.14-.05-.14-.14v-.04c0-.32-.15-.58-.46-.8-.3-.21-.71-.32-1.22-.32-.48,0-.86.1-1.15.29-.29.19-.43.46-.43.79,0,.32.14.56.42.73.28.17.71.34,1.3.5.54.16.98.31,1.32.45s.62.34.87.61c.24.27.36.61.36,1.04,0,.61-.24,1.09-.71,1.46-.48.36-1.11.55-1.89.55-.52,0-.99-.08-1.39-.25Z"/>
    <path d="M169.51,262.69c-.46.46-1.11.73-1.94.81-.04,0-.06.02-.06.06v1.01c.01.09-.03.14-.13.14h-.62c-.09,0-.14-.05-.14-.14v-1.01s0-.06-.04-.06c-.85-.09-1.51-.37-1.99-.83s-.71-1.05-.71-1.77v-.43c0-.09.05-.14.14-.14h.63c.09,0,.14.05.14.14v.38c0,.54.21.98.64,1.31.42.33,1.01.5,1.76.5.67,0,1.19-.15,1.54-.46s.53-.71.53-1.21c0-.33-.08-.61-.25-.84-.16-.23-.41-.45-.75-.66-.34-.21-.82-.44-1.44-.71-.67-.28-1.19-.53-1.55-.74s-.65-.48-.88-.81c-.23-.33-.34-.75-.34-1.25,0-.72.22-1.29.66-1.71.44-.42,1.04-.67,1.82-.75.04,0,.06-.02.06-.06v-1.09c-.01-.09.03-.14.13-.14h.6c.09,0,.14.05.14.14v1.11s0,.06.04.06c.82.09,1.47.37,1.93.84s.7,1.06.7,1.79v.31c0,.09-.05.14-.14.14h-.66c-.09,0-.14-.05-.14-.14v-.25c0-.54-.2-.98-.6-1.33s-.96-.52-1.67-.52c-.63,0-1.11.14-1.44.41-.34.27-.5.66-.5,1.18,0,.34.08.61.25.83s.4.41.7.57c.3.16.77.38,1.41.64.64.28,1.17.54,1.56.78s.71.54.95.89c.24.35.36.78.36,1.28,0,.71-.23,1.29-.69,1.75Z"/>
    <path d="M173.12,262.54h4.4c.09,0,.14.05.14.14v.59c0,.09-.05.14-.14.14h-5.59c-.09,0-.14-.05-.14-.14v-.59c0-.06.02-.12.07-.17.32-.37,1.03-1.25,2.14-2.63l1.04-1.29c.88-1.11,1.32-1.97,1.32-2.59,0-.49-.17-.89-.5-1.19-.34-.3-.77-.45-1.32-.45s-.96.15-1.29.46c-.33.3-.49.7-.48,1.2v.43c0,.09-.05.14-.14.14h-.73c-.09,0-.14-.05-.14-.14v-.56c.02-.72.29-1.3.8-1.74.52-.44,1.17-.66,1.97-.66.56,0,1.05.11,1.48.32.43.21.76.51.99.89s.35.81.35,1.28c0,.79-.44,1.75-1.32,2.87-.46.59-1.34,1.67-2.65,3.25l-.31.36s-.02.07.03.07Z"/>
    <path d="M179.84,263.16c-.15-.15-.22-.34-.22-.56s.07-.42.22-.57c.14-.14.33-.22.57-.22s.41.07.56.22.22.33.22.57-.07.41-.22.56-.34.22-.56.22-.42-.07-.57-.22Z"/>
    <path d="M188.66,260.41c0,.51-.07.97-.21,1.36-.19.56-.5.99-.95,1.3s-.99.45-1.64.45-1.21-.17-1.68-.51c-.47-.34-.79-.8-.97-1.38-.08-.26-.13-.62-.15-1.06,0-.09.05-.14.14-.14h.71c.09,0,.14.05.14.14.02.27.05.52.1.76.1.41.3.73.59.97.29.24.66.36,1.1.36.84,0,1.39-.37,1.64-1.12.11-.31.17-.69.17-1.15,0-.56-.08-1.02-.22-1.37-.3-.67-.83-1.01-1.58-1.01-.14,0-.31.05-.52.15-.04.02-.07.03-.08.03-.04,0-.07-.02-.1-.07l-.36-.49c-.05-.07-.04-.14.01-.2l2.46-2.88s.02-.07-.03-.07h-3.95c-.09,0-.14-.05-.14-.14v-.59c0-.09.05-.14.14-.14h5.18c.09,0,.14.05.14.14v.69s-.02.1-.07.17l-2.24,2.69s-.02.04-.01.05c0,.01.03.02.06.02,1,.07,1.68.54,2.04,1.41.19.46.28,1,.28,1.64Z"/>
    <path d="M195.8,258.38c.5.21.89.51,1.15.91.26.4.39.89.39,1.46,0,.84-.27,1.49-.8,1.96-.54.47-1.24.7-2.12.7h-3.39c-.09,0-.14-.05-.14-.14v-9.52c0-.09.05-.14.14-.14h3.29c.91,0,1.62.22,2.13.67.52.45.78,1.08.78,1.89,0,.51-.12.95-.37,1.31-.25.36-.6.63-1.06.82-.05.03-.05.06,0,.08ZM191.88,254.53v3.36s.02.06.06.06h2.38c.59,0,1.06-.15,1.41-.46.35-.31.52-.72.52-1.23,0-.54-.17-.97-.52-1.3-.35-.32-.82-.48-1.41-.48h-2.38s-.06.02-.06.06ZM195.83,262.02c.35-.34.53-.79.53-1.36s-.18-1.02-.54-1.36c-.36-.34-.84-.51-1.45-.51h-2.42s-.06.02-.06.06v3.63s.02.06.06.06h2.48c.59,0,1.06-.17,1.41-.5Z"/>
  </g>
  <g>
    <path d="M200,270c.63,1.24,7.2,14.65,0,28-4.87,9.02-13.11,12.61-16.23,13.74" fill="none" stroke="#000" stroke-miterlimit="10" stroke-width=".75"/>
    <polygon points="184.97 307.95 185.64 308.28 184.03 311.6 187.46 312.97 187.18 313.67 183 312 184.97 307.95"/>
  </g>
  <g>
    <path d="M170.98,376.58h.73c.09,0,.14.05.14.14v9.52c0,.09-.05.14-.14.14h-.71c-.09,0-.14-.05-.14-.14v-7.78s0-.05-.03-.06c-.02,0-.03,0-.04.03l-2.28,3.5c-.05.07-.1.1-.17.1h-.36c-.07,0-.12-.03-.17-.08l-2.28-3.47s-.02-.04-.04-.03c-.02,0-.03.03-.03.06v7.74c0,.09-.05.14-.14.14h-.71c-.09,0-.14-.05-.14-.14v-9.52c0-.09.05-.14.14-.14h.73c.08,0,.13.03.17.08l2.63,3.99s.02.01.04.01.03,0,.04-.01l2.6-3.98c.05-.07.1-.1.17-.1Z"/>
    <path d="M178.67,379.82c.46.43.69,1,.69,1.71v4.7c0,.09-.05.14-.14.14h-.71c-.09,0-.14-.05-.14-.14v-.57s0-.03-.02-.04c-.01,0-.03,0-.05.01-.23.28-.54.49-.91.64-.37.14-.79.22-1.25.22-.66,0-1.22-.17-1.67-.5-.45-.34-.67-.85-.67-1.54s.25-1.25.76-1.66c.51-.41,1.22-.61,2.12-.61h1.62s.06-.02.06-.06v-.53c0-.48-.13-.85-.4-1.13-.27-.28-.68-.41-1.24-.41-.45,0-.81.09-1.09.26-.28.17-.45.41-.52.72-.03.09-.08.14-.17.13l-.76-.1c-.1-.02-.14-.06-.13-.11.07-.52.35-.95.84-1.27.49-.33,1.09-.49,1.82-.49.84,0,1.49.21,1.95.64ZM177.76,385.22c.4-.28.6-.65.6-1.11v-1.09s-.02-.06-.06-.06h-1.47c-.62,0-1.11.13-1.48.38-.37.25-.56.6-.56,1.05,0,.41.14.72.43.93.28.21.66.32,1.11.32.55,0,1.03-.14,1.43-.41Z"/>
    <path d="M186.15,379.85c.44.44.67,1.03.67,1.76v4.62c0,.09-.05.14-.14.14h-.71c-.09,0-.14-.05-.14-.14v-4.42c0-.51-.16-.93-.47-1.26-.31-.33-.72-.49-1.21-.49s-.93.16-1.25.48-.48.73-.48,1.25v4.45c0,.09-.05.14-.14.14h-.71c-.09,0-.14-.05-.14-.14v-6.8c0-.09.05-.14.14-.14h.71c.09,0,.14.05.14.14v.6s0,.03.02.04c.01,0,.03,0,.04-.01.41-.58,1.04-.87,1.89-.87.75,0,1.34.22,1.79.66Z"/>
    <path d="M193.41,376.58h.71c.09,0,.14.05.14.14v9.52c0,.09-.05.14-.14.14h-.71c-.09,0-.14-.05-.14-.14v-.59s0-.03-.02-.04c-.01,0-.03,0-.05.02-.21.27-.46.48-.76.63-.3.15-.64.22-1.01.22-.65,0-1.2-.17-1.64-.5-.44-.34-.75-.79-.92-1.37-.13-.42-.2-1.01-.2-1.78s.06-1.35.17-1.74c.17-.6.48-1.07.92-1.41.45-.34,1-.51,1.67-.51.36,0,.7.07,1.01.22.31.15.56.35.77.62.02.02.04.03.05.02s.02-.02.02-.04v-3.29c0-.09.05-.14.14-.14ZM193.2,383.88c.04-.25.06-.6.06-1.05s-.02-.8-.06-1.06c-.04-.26-.1-.48-.2-.68-.11-.32-.3-.57-.55-.76-.26-.19-.56-.29-.92-.29-.37,0-.7.09-.97.28-.27.19-.47.43-.59.74-.11.21-.19.44-.24.69-.05.26-.08.61-.08,1.07s.02.78.06,1.03c.04.25.1.47.2.67.11.34.31.6.59.8.28.2.62.29,1.01.29s.69-.1.94-.29c.25-.2.44-.46.56-.78.08-.19.14-.41.18-.66Z"/>
    <path d="M200.91,379.82c.46.43.69,1,.69,1.71v4.7c0,.09-.05.14-.14.14h-.71c-.09,0-.14-.05-.14-.14v-.57s0-.03-.02-.04c-.01,0-.03,0-.05.01-.23.28-.54.49-.91.64-.37.14-.79.22-1.25.22-.66,0-1.22-.17-1.67-.5-.45-.34-.67-.85-.67-1.54s.25-1.25.76-1.66c.51-.41,1.22-.61,2.12-.61h1.62s.06-.02.06-.06v-.53c0-.48-.13-.85-.4-1.13-.27-.28-.68-.41-1.24-.41-.45,0-.81.09-1.09.26-.28.17-.45.41-.52.72-.03.09-.08.14-.17.13l-.76-.1c-.1-.02-.14-.06-.13-.11.07-.52.35-.95.84-1.27.49-.33,1.09-.49,1.82-.49.84,0,1.49.21,1.95.64ZM200,385.22c.4-.28.6-.65.6-1.11v-1.09s-.02-.06-.06-.06h-1.47c-.62,0-1.11.13-1.48.38-.37.25-.56.6-.56,1.05,0,.41.14.72.43.93.28.21.66.32,1.11.32.55,0,1.03-.14,1.43-.41Z"/>
    <path d="M206.65,380.12h-1.58s-.06.02-.06.06v4.13c0,.45.1.76.3.95.2.18.52.27.94.27h.35c.09,0,.14.05.14.14v.57c0,.09-.05.14-.14.14-.11,0-.29.01-.52.01-.67,0-1.18-.13-1.53-.38-.35-.25-.52-.72-.52-1.4v-4.44s-.02-.06-.06-.06h-.85c-.09,0-.14-.05-.14-.14v-.55c0-.09.05-.14.14-.14h.85s.06-.02.06-.06v-1.62c0-.09.05-.14.14-.14h.69c.09,0,.14.05.14.14v1.62s.02.06.06.06h1.58c.09,0,.14.05.14.14v.55c0,.09-.05.14-.14.14Z"/>
    <path d="M213.99,382.62v.45c0,.09-.05.14-.14.14h-4.52s-.06.02-.06.06c.02.51.05.84.08.99.1.42.32.75.66.99s.77.36,1.29.36c.39,0,.74-.09,1.04-.27.3-.18.53-.43.7-.76.06-.08.12-.1.2-.06l.55.32c.07.05.09.11.06.2-.23.45-.58.8-1.05,1.06-.47.26-1,.38-1.61.38-.66,0-1.22-.17-1.67-.48-.45-.31-.77-.74-.97-1.29-.17-.45-.25-1.09-.25-1.93,0-.39,0-.71.02-.96.01-.25.05-.47.11-.67.16-.61.48-1.09.96-1.46s1.06-.55,1.74-.55c.85,0,1.5.21,1.96.64.46.43.74,1.04.85,1.82.04.26.06.59.06.98ZM209.98,380.4c-.3.24-.5.56-.59.96-.06.2-.09.51-.11.95,0,.04.02.06.06.06h3.63s.06-.02.06-.06c-.02-.42-.05-.72-.08-.9-.1-.42-.31-.75-.62-1s-.71-.37-1.18-.37-.84.12-1.14.36Z"/>
    <path d="M220.5,376.58h.71c.09,0,.14.05.14.14v9.52c0,.09-.05.14-.14.14h-.71c-.09,0-.14-.05-.14-.14v-.59s0-.03-.02-.04c-.01,0-.03,0-.05.02-.21.27-.46.48-.76.63-.3.15-.64.22-1.01.22-.65,0-1.2-.17-1.64-.5-.44-.34-.75-.79-.92-1.37-.13-.42-.2-1.01-.2-1.78s.06-1.35.17-1.74c.17-.6.48-1.07.92-1.41.45-.34,1-.51,1.67-.51.36,0,.7.07,1.01.22.31.15.56.35.77.62.02.02.04.03.05.02s.02-.02.02-.04v-3.29c0-.09.05-.14.14-.14ZM220.29,383.88c.04-.25.06-.6.06-1.05s-.02-.8-.06-1.06c-.04-.26-.1-.48-.2-.68-.11-.32-.3-.57-.55-.76-.26-.19-.56-.29-.92-.29-.37,0-.7.09-.97.28-.27.19-.47.43-.59.74-.11.21-.19.44-.24.69-.05.26-.08.61-.08,1.07s.02.78.06,1.03c.04.25.1.47.2.67.11.34.31.6.59.8.28.2.62.29,1.01.29s.69-.1.94-.29c.25-.2.44-.46.56-.78.08-.19.14-.41.18-.66Z"/>
    <path d="M228.16,377.79c-.19.23-.28.62-.28,1.17v.28s.02.06.06.06h1.57c.09,0,.14.05.14.14v.63c0,.09-.05.14-.14.14h-1.57s-.06.02-.06.06v5.98c0,.09-.05.14-.14.14h-.7c-.09,0-.14-.05-.14-.14v-5.98s-.02-.06-.06-.06h-.94c-.09,0-.14-.05-.14-.14v-.63c0-.09.05-.14.14-.14h.94s.06-.02.06-.06v-.34c0-.58.06-1.03.2-1.36.13-.33.36-.57.68-.73.32-.15.77-.23,1.35-.23h.41c.09,0,.14.05.14.14v.59c0,.09-.05.14-.14.14h-.32c-.51,0-.86.12-1.05.34Z"/>
    <path d="M235.82,379.29h.71c.09,0,.14.05.14.14v6.8c0,.09-.05.14-.14.14h-.71c-.09,0-.14-.05-.14-.14v-.6s0-.03-.03-.04c-.02,0-.03,0-.04.01-.39.58-1.01.87-1.86.87-.45,0-.86-.09-1.24-.27-.38-.18-.68-.45-.9-.79-.22-.35-.33-.76-.33-1.25v-4.73c0-.09.05-.14.14-.14h.71c.09,0,.14.05.14.14v4.44c0,.53.15.95.45,1.27s.7.47,1.22.47.95-.16,1.27-.48c.31-.32.47-.74.47-1.26v-4.44c0-.09.05-.14.14-.14Z"/>
    <path d="M243.62,379.85c.44.44.67,1.03.67,1.76v4.62c0,.09-.05.14-.14.14h-.71c-.09,0-.14-.05-.14-.14v-4.42c0-.51-.16-.93-.47-1.26-.31-.33-.72-.49-1.21-.49s-.93.16-1.25.48-.48.73-.48,1.25v4.45c0,.09-.05.14-.14.14h-.71c-.09,0-.14-.05-.14-.14v-6.8c0-.09.05-.14.14-.14h.71c.09,0,.14.05.14.14v.6s0,.03.02.04c.01,0,.03,0,.04-.01.41-.58,1.04-.87,1.89-.87.75,0,1.34.22,1.79.66Z"/>
    <path d="M250.88,376.58h.71c.09,0,.14.05.14.14v9.52c0,.09-.05.14-.14.14h-.71c-.09,0-.14-.05-.14-.14v-.59s0-.03-.02-.04c-.01,0-.03,0-.05.02-.21.27-.46.48-.76.63-.3.15-.64.22-1.01.22-.65,0-1.2-.17-1.64-.5-.44-.34-.75-.79-.92-1.37-.13-.42-.2-1.01-.2-1.78s.06-1.35.17-1.74c.17-.6.48-1.07.92-1.41.45-.34,1-.51,1.67-.51.36,0,.7.07,1.01.22.31.15.56.35.77.62.02.02.04.03.05.02s.02-.02.02-.04v-3.29c0-.09.05-.14.14-.14ZM250.67,383.88c.04-.25.06-.6.06-1.05s-.02-.8-.06-1.06c-.04-.26-.1-.48-.2-.68-.11-.32-.3-.57-.55-.76-.26-.19-.56-.29-.92-.29-.37,0-.7.09-.97.28-.27.19-.47.43-.59.74-.11.21-.19.44-.24.69-.05.26-.08.61-.08,1.07s.02.78.06,1.03c.04.25.1.47.2.67.11.34.31.6.59.8.28.2.62.29,1.01.29s.69-.1.94-.29c.25-.2.44-.46.56-.78.08-.19.14-.41.18-.66Z"/>
    <path d="M254.1,377.78c-.15-.15-.22-.34-.22-.56s.08-.42.22-.57c.15-.14.34-.22.56-.22s.41.07.56.22c.15.15.22.33.22.57s-.08.41-.22.56c-.15.15-.34.22-.56.22s-.41-.08-.56-.22ZM254.13,386.22v-6.8c0-.09.05-.14.14-.14h.71c.09,0,.14.05.14.14v6.8c0,.09-.05.14-.14.14h-.71c-.09,0-.14-.05-.14-.14Z"/>
    <path d="M262.28,379.85c.44.44.67,1.03.67,1.76v4.62c0,.09-.05.14-.14.14h-.71c-.09,0-.14-.05-.14-.14v-4.42c0-.51-.16-.93-.47-1.26-.31-.33-.72-.49-1.21-.49s-.93.16-1.25.48-.48.73-.48,1.25v4.45c0,.09-.05.14-.14.14h-.71c-.09,0-.14-.05-.14-.14v-6.8c0-.09.05-.14.14-.14h.71c.09,0,.14.05.14.14v.6s0,.03.02.04c.01,0,.03,0,.04-.01.41-.58,1.04-.87,1.89-.87.75,0,1.34.22,1.79.66Z"/>
    <path d="M269.61,379.29h.71c.09,0,.14.05.14.14v6.71c0,1.04-.3,1.81-.9,2.3-.6.49-1.43.73-2.49.73-.21,0-.38,0-.49-.01-.09,0-.14-.06-.14-.15l.03-.64s.01-.08.04-.1c.03-.02.06-.03.1-.02h.38c.87.01,1.5-.16,1.89-.5.39-.34.59-.88.59-1.62v-.52s0-.03-.02-.04c-.01,0-.03,0-.05.02-.43.56-1.04.84-1.83.84-.61,0-1.15-.16-1.62-.49-.47-.33-.79-.79-.94-1.39-.11-.38-.17-.95-.17-1.71,0-.41.01-.76.04-1.04s.07-.53.15-.76c.17-.56.47-1.01.91-1.35.44-.34.97-.51,1.58-.51.83,0,1.46.28,1.89.83.02.02.04.02.05.01.01,0,.02-.02.02-.04v-.55c0-.09.05-.14.14-.14ZM269.46,383.71c0-.21.01-.5.01-.9,0-.48,0-.79-.01-.96,0-.16-.03-.31-.07-.46-.08-.39-.26-.72-.55-.97s-.67-.38-1.11-.38-.81.13-1.11.38c-.3.25-.52.58-.64.98-.09.3-.14.77-.14,1.4,0,.68.05,1.15.14,1.41.09.39.3.72.61.97.31.26.69.39,1.14.39s.83-.13,1.13-.38c.29-.25.48-.57.55-.97.03-.14.05-.31.06-.52Z"/>
    <path d="M169.51,402.46c-.46.46-1.11.73-1.94.81-.04,0-.06.02-.06.06v1.01c.01.09-.03.14-.13.14h-.62c-.09,0-.14-.05-.14-.14v-1.01s0-.06-.04-.06c-.85-.09-1.51-.37-1.99-.83s-.71-1.05-.71-1.77v-.43c0-.09.05-.14.14-.14h.63c.09,0,.14.05.14.14v.38c0,.54.21.98.64,1.31s1.01.5,1.76.5c.67,0,1.19-.15,1.54-.46.35-.3.53-.71.53-1.21,0-.33-.08-.61-.25-.84-.16-.23-.41-.45-.75-.66s-.82-.44-1.44-.71c-.67-.28-1.19-.53-1.55-.74s-.65-.48-.88-.81c-.23-.33-.34-.75-.34-1.25,0-.72.22-1.29.66-1.71.44-.42,1.04-.67,1.82-.75.04,0,.06-.02.06-.06v-1.09c-.01-.09.03-.14.13-.14h.6c.09,0,.14.05.14.14v1.11s0,.06.04.06c.82.09,1.47.37,1.93.84s.7,1.06.7,1.79v.31c0,.09-.05.14-.14.14h-.66c-.09,0-.14-.05-.14-.14v-.25c0-.54-.2-.98-.6-1.33-.4-.34-.96-.52-1.67-.52-.63,0-1.11.13-1.44.41-.34.27-.5.66-.5,1.18,0,.34.08.61.25.83.16.22.4.41.7.57.3.16.77.38,1.41.64.64.28,1.17.54,1.56.78.4.24.71.54.95.89.24.35.36.78.36,1.28,0,.71-.23,1.29-.69,1.75Z"/>
    <path d="M173.12,402.31h4.4c.09,0,.14.05.14.14v.59c0,.09-.05.14-.14.14h-5.59c-.09,0-.14-.05-.14-.14v-.59c0-.06.02-.12.07-.17.32-.37,1.03-1.25,2.14-2.63l1.04-1.29c.88-1.11,1.32-1.97,1.32-2.59,0-.49-.17-.89-.5-1.19-.34-.3-.77-.45-1.32-.45s-.96.15-1.29.46c-.33.3-.49.7-.48,1.2v.43c0,.09-.05.14-.14.14h-.73c-.09,0-.14-.05-.14-.14v-.56c.02-.72.29-1.3.8-1.74.52-.44,1.17-.66,1.97-.66.56,0,1.05.11,1.48.32.43.21.76.51.99.89s.35.8.35,1.28c0,.79-.44,1.75-1.32,2.87-.46.59-1.34,1.67-2.65,3.25l-.31.36s-.02.07.03.07Z"/>
    <path d="M179.84,402.92c-.15-.15-.22-.34-.22-.56s.07-.42.22-.57c.14-.14.33-.22.57-.22s.41.07.56.22.22.33.22.57-.07.41-.22.56-.34.22-.56.22-.42-.07-.57-.22Z"/>
    <path d="M184.52,402.31h4.4c.09,0,.14.05.14.14v.59c0,.09-.05.14-.14.14h-5.59c-.09,0-.14-.05-.14-.14v-.59c0-.06.02-.12.07-.17.32-.37,1.03-1.25,2.14-2.63l1.04-1.29c.88-1.11,1.32-1.97,1.32-2.59,0-.49-.17-.89-.5-1.19-.34-.3-.77-.45-1.32-.45s-.96.15-1.29.46c-.33.3-.49.7-.48,1.2v.43c0,.09-.05.14-.14.14h-.73c-.09,0-.14-.05-.14-.14v-.56c.02-.72.29-1.3.8-1.74.52-.44,1.17-.66,1.97-.66.56,0,1.05.11,1.48.32.43.21.76.51.99.89s.35.8.35,1.28c0,.79-.44,1.75-1.32,2.87-.46.59-1.34,1.67-2.65,3.25l-.31.36s-.02.07.03.07Z"/>
    <path d="M196.1,398.15c.5.21.89.51,1.15.91s.39.89.39,1.46c0,.84-.27,1.49-.8,1.96s-1.24.7-2.12.7h-3.39c-.09,0-.14-.05-.14-.14v-9.52c0-.09.05-.14.14-.14h3.29c.91,0,1.62.22,2.13.67.52.45.78,1.08.78,1.89,0,.51-.12.95-.37,1.31-.25.36-.6.63-1.06.82-.05.03-.05.06,0,.08ZM192.18,394.3v3.36s.02.06.06.06h2.38c.59,0,1.06-.15,1.41-.46.35-.31.52-.72.52-1.23,0-.54-.17-.97-.52-1.29-.35-.32-.82-.48-1.41-.48h-2.38s-.06.02-.06.06ZM196.12,401.79c.35-.34.53-.79.53-1.36s-.18-1.02-.54-1.37c-.36-.34-.84-.51-1.45-.51h-2.42s-.06.02-.06.06v3.63s.02.06.06.06h2.48c.59,0,1.06-.17,1.41-.5Z"/>
  </g>
  <g>
    <path d="M178.6,413.94c.63,1.24,7.2,14.65,0,28-4.87,9.02-13.11,12.61-16.23,13.74" fill="none" stroke="#000" stroke-miterlimit="10" stroke-width=".75"/>
    <polygon points="163.57 451.89 164.24 452.21 162.62 455.54 166.06 456.91 165.78 457.61 161.6 455.94 163.57 451.89"/>
  </g>
  <g>
    <path d="M56.58,261.72c-.46.46-1.11.73-1.94.81-.04,0-.06.02-.06.06v1.01c.01.09-.03.14-.13.14h-.62c-.09,0-.14-.05-.14-.14v-1.01s0-.06-.04-.06c-.85-.09-1.51-.37-1.99-.83s-.71-1.05-.71-1.77v-.43c0-.09.05-.14.14-.14h.63c.09,0,.14.05.14.14v.38c0,.54.21.98.64,1.31.42.33,1.01.5,1.76.5.67,0,1.19-.15,1.54-.46s.53-.71.53-1.21c0-.33-.08-.61-.25-.84-.16-.23-.41-.45-.75-.66-.34-.21-.82-.44-1.44-.71-.67-.28-1.19-.53-1.55-.74s-.65-.48-.88-.81c-.23-.33-.34-.75-.34-1.25,0-.72.22-1.29.66-1.71.44-.42,1.04-.67,1.82-.75.04,0,.06-.02.06-.06v-1.09c-.01-.09.03-.14.13-.14h.6c.09,0,.14.05.14.14v1.11s0,.06.04.06c.82.09,1.47.37,1.93.84s.7,1.06.7,1.79v.31c0,.09-.05.14-.14.14h-.66c-.09,0-.14-.05-.14-.14v-.25c0-.54-.2-.98-.6-1.33s-.96-.52-1.67-.52c-.63,0-1.11.14-1.44.41-.34.27-.5.66-.5,1.18,0,.34.08.61.25.83s.4.41.7.57c.3.16.77.38,1.41.64.64.28,1.17.54,1.56.78s.71.54.95.89c.24.35.36.78.36,1.28,0,.71-.23,1.29-.69,1.75Z"/>
    <path d="M64.9,258.98v.62c0,.09-.05.14-.14.14h-.6s-.06.02-.06.06v2.51c0,.09-.05.14-.14.14h-.71c-.09,0-.14-.05-.14-.14v-2.51s-.02-.06-.06-.06h-4.19c-.09,0-.14-.05-.14-.14v-.52s.01-.1.04-.17l2.87-6.17c.03-.06.08-.1.15-.1h.74s.08.02.1.05.03.07,0,.12l-2.79,5.96s0,.04,0,.05c0,.01.02.02.04.02h3.15s.06-.02.06-.06v-2.25c0-.09.05-.14.14-.14h.71c.09,0,.14.05.14.14v2.25s.02.06.06.06h.6c.09,0,.14.05.14.14Z"/>
    <path d="M67.12,262.18c-.15-.15-.22-.34-.22-.56s.07-.42.22-.57c.14-.14.33-.22.57-.22s.41.07.56.22.22.33.22.57-.07.41-.22.56-.34.22-.56.22-.42-.07-.57-.22Z"/>
    <path d="M76.14,259.41c0,.46-.04.85-.13,1.18-.16.6-.48,1.07-.95,1.42-.48.35-1.05.52-1.72.52s-1.23-.17-1.69-.5c-.47-.34-.78-.78-.95-1.34-.07-.21-.11-.41-.13-.62v-.03c0-.07.04-.11.13-.11h.74c.09,0,.14.05.15.14,0,.06.02.15.06.28.09.4.29.72.58.96.29.24.66.36,1.1.36s.82-.13,1.13-.38c.3-.25.5-.6.6-1.04.06-.21.08-.49.08-.84,0-.32-.02-.62-.07-.91-.07-.43-.25-.76-.56-.98-.31-.22-.69-.34-1.15-.34-.41,0-.78.09-1.11.28-.33.19-.54.43-.63.74-.03.08-.08.13-.15.13h-.76c-.09,0-.14-.05-.14-.14v-5.42c0-.09.05-.14.14-.14h4.9c.09,0,.14.05.14.14v.59c0,.09-.05.14-.14.14h-3.99s-.06.02-.06.06v3.39s0,.03,0,.04c.01,0,.03,0,.05-.01.23-.21.51-.38.83-.5s.65-.17,1.01-.17c.66,0,1.22.16,1.68.48.46.32.75.78.88,1.36.08.41.13.83.13,1.26Z"/>
    <path d="M83.07,257.41c.5.21.89.51,1.15.91.26.4.39.89.39,1.46,0,.84-.27,1.49-.8,1.96-.54.47-1.24.7-2.12.7h-3.39c-.09,0-.14-.05-.14-.14v-9.52c0-.09.05-.14.14-.14h3.29c.91,0,1.62.22,2.13.67.52.45.78,1.08.78,1.89,0,.51-.12.95-.37,1.31-.25.36-.6.63-1.06.82-.05.03-.05.06,0,.08ZM79.15,253.56v3.36s.02.06.06.06h2.38c.59,0,1.06-.15,1.41-.46.35-.31.52-.72.52-1.23,0-.54-.17-.97-.52-1.3-.35-.32-.82-.48-1.41-.48h-2.38s-.06.02-.06.06ZM83.09,261.05c.35-.34.53-.79.53-1.36s-.18-1.02-.54-1.36c-.36-.34-.84-.51-1.45-.51h-2.42s-.06.02-.06.06v3.63s.02.06.06.06h2.48c.59,0,1.06-.17,1.41-.5Z"/>
  </g>
  <g>
    <path d="M67.64,402.52c-.46.46-1.11.73-1.94.81-.04,0-.06.02-.06.06v1.01c.01.09-.03.14-.13.14h-.62c-.09,0-.14-.05-.14-.14v-1.01s0-.06-.04-.06c-.85-.09-1.51-.37-1.99-.83s-.71-1.05-.71-1.77v-.43c0-.09.05-.14.14-.14h.63c.09,0,.14.05.14.14v.38c0,.54.21.98.64,1.31.42.33,1.01.5,1.76.5.67,0,1.19-.15,1.54-.46.35-.3.53-.71.53-1.21,0-.33-.08-.61-.25-.84s-.41-.45-.75-.66-.82-.44-1.44-.71c-.67-.28-1.19-.53-1.55-.73-.36-.21-.65-.48-.88-.81-.23-.33-.34-.75-.34-1.25,0-.72.22-1.29.66-1.71.44-.42,1.04-.67,1.82-.75.04,0,.06-.02.06-.06v-1.09c-.01-.09.03-.14.13-.14h.6c.09,0,.14.05.14.14v1.11s0,.06.04.06c.82.09,1.47.37,1.93.84s.7,1.06.7,1.79v.31c0,.09-.05.14-.14.14h-.66c-.09,0-.14-.05-.14-.14v-.25c0-.54-.2-.99-.6-1.33s-.96-.52-1.67-.52c-.63,0-1.11.14-1.44.41-.34.27-.5.66-.5,1.18,0,.34.08.61.25.83.16.22.4.41.7.57.3.16.77.38,1.41.64.64.28,1.17.54,1.56.78.4.24.71.54.95.89.24.35.36.78.36,1.28,0,.71-.23,1.29-.69,1.75Z"/>
    <path d="M71.26,402.37h4.4c.09,0,.14.05.14.14v.59c0,.09-.05.14-.14.14h-5.59c-.09,0-.14-.05-.14-.14v-.59c0-.06.02-.12.07-.17.32-.37,1.03-1.25,2.14-2.63l1.04-1.29c.88-1.11,1.32-1.97,1.32-2.59,0-.49-.17-.89-.5-1.19-.34-.3-.77-.45-1.32-.45s-.96.15-1.29.46c-.33.3-.49.7-.48,1.2v.43c0,.09-.05.14-.14.14h-.73c-.09,0-.14-.05-.14-.14v-.56c.02-.72.29-1.3.8-1.74.52-.44,1.17-.66,1.97-.66.56,0,1.05.11,1.48.32.43.21.76.51.99.89.23.38.35.8.35,1.28,0,.79-.44,1.75-1.32,2.87-.46.59-1.34,1.67-2.65,3.25l-.31.36s-.02.07.03.07Z"/>
    <path d="M77.97,402.98c-.15-.15-.22-.34-.22-.56s.07-.42.22-.57c.14-.14.33-.22.57-.22s.41.07.56.22.22.33.22.57-.07.41-.22.56c-.15.15-.34.22-.56.22s-.42-.08-.57-.22Z"/>
    <path d="M86.8,400.24c0,.51-.07.97-.21,1.36-.19.56-.5.99-.95,1.29-.44.3-.99.46-1.64.46s-1.21-.17-1.68-.51c-.47-.34-.79-.8-.97-1.38-.08-.26-.13-.62-.15-1.06,0-.09.05-.14.14-.14h.71c.09,0,.14.05.14.14.02.27.05.52.1.76.1.41.3.73.59.97s.66.36,1.1.36c.84,0,1.39-.37,1.64-1.12.11-.31.17-.69.17-1.15,0-.56-.08-1.02-.22-1.37-.3-.67-.83-1.01-1.58-1.01-.14,0-.31.05-.52.15-.04.02-.07.03-.08.03-.04,0-.07-.02-.1-.07l-.36-.49c-.05-.07-.04-.14.01-.2l2.46-2.88s.02-.07-.03-.07h-3.95c-.09,0-.14-.05-.14-.14v-.59c0-.09.05-.14.14-.14h5.18c.09,0,.14.05.14.14v.69s-.02.1-.07.17l-2.24,2.69s-.02.04-.01.05c0,.01.03.02.06.02,1,.07,1.68.54,2.04,1.41.19.46.28,1,.28,1.64Z"/>
    <path d="M93.94,398.21c.5.21.89.51,1.15.91.26.4.39.89.39,1.46,0,.84-.27,1.49-.8,1.96-.54.47-1.24.7-2.12.7h-3.39c-.09,0-.14-.05-.14-.14v-9.52c0-.09.05-.14.14-.14h3.29c.91,0,1.62.22,2.13.67.52.45.78,1.08.78,1.89,0,.51-.12.95-.37,1.31s-.6.63-1.06.82c-.05.03-.05.06,0,.08ZM90.02,394.36v3.36s.02.06.06.06h2.38c.59,0,1.06-.15,1.41-.46.35-.31.52-.72.52-1.23,0-.54-.17-.97-.52-1.29-.35-.32-.82-.48-1.41-.48h-2.38s-.06.02-.06.06ZM93.96,401.85c.35-.34.53-.79.53-1.36s-.18-1.02-.54-1.37c-.36-.34-.84-.51-1.45-.51h-2.42s-.06.02-.06.06v3.63s.02.06.06.06h2.48c.59,0,1.06-.17,1.41-.5Z"/>
  </g>
</svg>