<?xml version="1.0" encoding="UTF-8"?>
<svg id="Layer_1" data-name="Layer 1" xmlns="http://www.w3.org/2000/svg" viewBox="0 0 300 600">
  <defs>
    <style>
      .cls-1 {
        fill: rgba(204, 204, 204, .4);
      }

      .cls-2 {
        font-family: Barlow-Regular, Barlow;
        font-size: 14px;
      }

      .cls-3 {
        letter-spacing: 0em;
      }

      .cls-4 {
        fill: none;
        stroke: #000;
        stroke-miterlimit: 10;
        stroke-width: .75px;
      }

      .cls-5 {
        opacity: .6;
      }

      .cls-5, .cls-6 {
        fill: rgba(229, 76, 76, .8);
      }

      .cls-7 {
        letter-spacing: -.07em;
      }

      .cls-8 {
        letter-spacing: -.01em;
      }

      .cls-9 {
        letter-spacing: 0em;
      }

      .cls-10 {
        letter-spacing: 0em;
      }

      .cls-11 {
        letter-spacing: 0em;
      }

      .cls-12 {
        letter-spacing: 0em;
      }

      .cls-13 {
        letter-spacing: 0em;
      }

      .cls-14 {
        letter-spacing: .01em;
      }
    </style>
  </defs>
  <path class="cls-1" d="M258.78,61.75c-.07,63.93,35.76,63.97,35.69,127.91l-144.75-.16c.07-63.93-35.76-63.97-35.69-127.91l144.75.16Z"/>
  <path class="cls-5" d="M114.03,61.59c-.07,64.99,21.35,65.01,21.28,130l-108.17-.12c.07-64.99-21.35-65.01-21.28-130l108.17.12Z"/>
  <rect class="cls-6" x="125.31" y="-71.88" width="14.05" height="252.92" transform="translate(77.6 186.86) rotate(-89.94)"/>
  <rect class="cls-1" x="214.37" y="124.91" width="15.42" height="144.75" transform="translate(24.55 419.15) rotate(-89.94)"/>
  <rect class="cls-6" x="74.19" y="144.47" width="14.05" height="108.17" transform="translate(-117.43 279.55) rotate(-89.94)"/>
  <text class="cls-2" transform="translate(6.92 22.99)"><tspan class="cls-7" x="0" y="0">T</tspan><tspan class="cls-9" x="6.99" y="0">o</tspan><tspan x="14.53" y="0">tal budg</tspan><tspan class="cls-11" x="63.08" y="0">e</tspan><tspan x="70.45" y="0">t: $15.9B</tspan></text>
  <g>
    <path class="cls-4" d="M136,19c1.94-.1,10.53-.34,18,6,7.9,6.71,8.88,15.98,8.99,19.1"/>
    <path d="M159.09,39.17c.17-.12.4-.08.52.09l3.33,4.67,2.83-4.99c.1-.18.33-.24.51-.14.18.1.24.33.14.51l-3.12,5.51c-.06.11-.18.18-.31.19s-.25-.05-.33-.16l-3.67-5.15c-.04-.06-.07-.13-.07-.2,0-.12.05-.25.16-.33Z"/>
  </g>
  <text class="cls-2" transform="translate(36.72 110.61)"><tspan class="cls-12" x="0" y="0">G</tspan><tspan x="8.57" y="0">e</tspan><tspan class="cls-10" x="16.03" y="0">n</tspan><tspan x="23.48" y="0">e</tspan><tspan class="cls-13" x="30.94" y="0">r</tspan><tspan class="cls-3" x="36.01" y="0">al</tspan><tspan x="0" y="16.8">fu</tspan><tspan class="cls-11" x="12.49" y="16.8">n</tspan><tspan x="19.94" y="16.8">d</tspan><tspan x="0" y="33.6">$6.8B</tspan></text>
  <text class="cls-2" transform="translate(163.14 112.61)"><tspan x="0" y="0">En</tspan><tspan class="cls-8" x="16.02" y="0">t</tspan><tspan x="20.9" y="0">erprise</tspan><tspan x="0" y="16.8">depa</tspan><tspan class="cls-14" x="29.99" y="16.8">r</tspan><tspan x="35.28" y="16.8">t</tspan><tspan class="cls-11" x="40.38" y="16.8">m</tspan><tspan x="51.86" y="16.8">ents</tspan><tspan x="0" y="33.6">$9.1B</tspan></text>
</svg>