<?xml version="1.0" encoding="UTF-8"?>
<svg id="Layer_1" data-name="Layer 1" xmlns="http://www.w3.org/2000/svg" viewBox="0 0 300 600">
  <defs>
    <style>
      .cls-1 {
        font-family: Barlow-Regular, Barlow;
        font-size: 14px;
      }

      .cls-2 {
        fill: none;
        stroke: #000;
        stroke-miterlimit: 10;
        stroke-width: .75px;
      }

      .cls-3 {
        letter-spacing: -.07em;
      }

      .cls-4 {
        letter-spacing: 0em;
      }

      .cls-5 {
        letter-spacing: 0em;
      }

      .cls-6 {
        fill: rgba(229, 76, 76, .8);
      }
    </style>
  </defs>
  <rect class="cls-6" x="125.31" y="-71.88" width="14.05" height="252.92" transform="translate(77.6 186.86) rotate(-89.94)"/>
  <text class="cls-1" transform="translate(6.92 22.99)"><tspan class="cls-3" x="0" y="0">T</tspan><tspan class="cls-4" x="6.99" y="0">o</tspan><tspan x="14.53" y="0">tal budg</tspan><tspan class="cls-5" x="63.08" y="0">e</tspan><tspan x="70.45" y="0">t: $15.9B</tspan></text>
  <g>
    <path class="cls-2" d="M136,19c1.94-.1,10.53-.34,18,6,7.9,6.71,8.88,15.98,8.99,19.1"/>
    <path d="M159.09,39.17c.17-.12.4-.08.52.09l3.33,4.67,2.83-4.99c.1-.18.33-.24.51-.14.18.1.24.33.14.51l-3.12,5.51c-.06.11-.18.18-.31.19s-.25-.05-.33-.16l-3.67-5.15c-.04-.06-.07-.13-.07-.2,0-.12.05-.25.16-.33Z"/>
  </g>
</svg>